<svg xmlns="http://www.w3.org/2000/svg" width="253" height="247" viewBox="0 0 253 247" version="1.1"><path d="M 67.432 29 C 67.432 42.475, 67.574 47.987, 67.747 41.250 C 67.920 34.512, 67.920 23.487, 67.747 16.750 C 67.574 10.012, 67.432 15.525, 67.432 29 M 132.008 17.750 L 132.016 30.500 143.320 41.750 L 154.624 53 169.312 53 L 184 53 184 29 L 184 5 158 5 L 132 5 132.008 17.750 M 195.432 29 C 195.432 42.475, 195.574 47.987, 195.747 41.250 C 195.920 34.512, 195.920 23.487, 195.747 16.750 C 195.574 10.012, 195.432 15.525, 195.432 29 M 14.405 11.250 L 12.500 13.500 14.750 11.595 C 15.988 10.547, 17 9.535, 17 9.345 C 17 9.155, 16.845 9, 16.655 9 C 16.465 9, 15.453 10.012, 14.405 11.250 M 236.500 11 C 237.495 12.100, 238.535 13, 238.810 13 C 239.085 13, 238.495 12.100, 237.500 11 C 236.505 9.900, 235.465 9, 235.190 9 C 234.915 9, 235.505 9.900, 236.500 11 M 120.300 20 C 120.300 23.025, 120.487 24.263, 120.716 22.750 C 120.945 21.238, 120.945 18.763, 120.716 17.250 C 120.487 15.738, 120.300 16.975, 120.300 20 M 243.397 39 C 243.397 46.975, 243.553 50.237, 243.743 46.250 C 243.932 42.263, 243.932 35.737, 243.743 31.750 C 243.553 27.762, 243.397 31.025, 243.397 39 M 8.395 39.500 C 8.396 47.200, 8.553 50.218, 8.743 46.206 C 8.934 42.195, 8.932 35.895, 8.741 32.206 C 8.549 28.518, 8.393 31.800, 8.395 39.500 M 131.394 46.416 C 131.095 47.194, 131.042 49.107, 131.276 50.666 C 131.627 53.012, 131.726 52.844, 131.850 49.691 C 131.952 47.093, 132.367 46.109, 133.155 46.595 C 133.870 47.038, 134.038 46.870, 133.595 46.155 C 133.203 45.520, 132.669 45, 132.410 45 C 132.150 45, 131.693 45.637, 131.394 46.416 M 113.405 51.250 L 111.500 53.500 113.750 51.595 C 114.987 50.547, 116 49.535, 116 49.345 C 116 49.155, 115.845 49, 115.655 49 C 115.465 49, 114.453 50.013, 113.405 51.250 M 8.451 64.266 C 8.184 64.963, 8.094 77.225, 8.250 91.516 L 8.535 117.500 8.768 90.768 L 9 64.036 33.250 63.749 L 57.500 63.463 33.219 63.231 C 14.377 63.052, 8.828 63.284, 8.451 64.266 M 67.667 63.667 C 67.300 64.033, 67 68.308, 67 73.167 C 67 78.025, 67.338 82.001, 67.750 82.002 C 68.162 82.004, 68.355 77.921, 68.177 72.929 L 67.854 63.854 76.929 64.177 C 81.921 64.355, 86.004 64.162, 86.002 63.750 C 86.001 63.337, 82.025 63, 77.167 63 C 72.308 63, 68.033 63.300, 67.667 63.667 M 170.784 63.738 C 173.689 63.941, 178.189 63.939, 180.784 63.734 C 183.378 63.528, 181 63.363, 175.500 63.365 C 170 63.368, 167.878 63.536, 170.784 63.738 M 195.222 78.732 L 195.444 94.500 195.748 79.250 L 196.052 64 219.510 64 L 242.967 64 243.258 90.250 L 243.549 116.500 243.524 90 L 243.500 63.500 219.250 63.232 L 195 62.964 195.222 78.732 M 131.438 90.500 C 131.437 105.350, 131.576 111.564, 131.747 104.310 C 131.918 97.055, 131.918 84.905, 131.748 77.310 C 131.578 69.714, 131.438 75.650, 131.438 90.500 M 56.400 79.500 C 56.401 87.750, 56.556 90.992, 56.744 86.704 C 56.932 82.417, 56.931 75.667, 56.742 71.704 C 56.552 67.742, 56.399 71.250, 56.400 79.500 M 76.473 73.250 L 69.500 80.500 76.750 73.527 C 80.737 69.692, 84 66.429, 84 66.277 C 84 66.125, 83.875 66, 83.723 66 C 83.571 66, 80.308 69.263, 76.473 73.250 M 184.328 73.500 C 184.333 77.350, 184.513 78.802, 184.730 76.728 C 184.946 74.653, 184.943 71.503, 184.722 69.728 C 184.501 67.952, 184.324 69.650, 184.328 73.500 M 176 74.500 C 178.987 77.525, 181.657 80, 181.932 80 C 182.207 80, 179.987 77.525, 177 74.500 C 174.013 71.475, 171.343 69, 171.068 69 C 170.793 69, 173.013 71.475, 176 74.500 M 207 105.500 C 208.866 107.425, 210.617 109, 210.892 109 C 211.167 109, 209.866 107.425, 208 105.500 C 206.134 103.575, 204.383 102, 204.108 102 C 203.833 102, 205.134 103.575, 207 105.500 M 54.872 109.750 C 53.629 111.336, 53.664 111.371, 55.250 110.128 C 56.212 109.373, 57 108.585, 57 108.378 C 57 108.170, 56.830 108, 56.622 108 C 56.415 108, 55.627 108.787, 54.872 109.750 M 195.168 113.250 L 195.336 117.500 195.730 113.729 C 195.980 111.327, 196.520 110.203, 197.216 110.634 C 197.871 111.038, 198.023 110.847, 197.595 110.155 C 197.203 109.520, 196.459 109, 195.941 109 C 195.423 109, 195.076 110.912, 195.168 113.250 M 49.405 115.250 L 47.500 117.500 49.750 115.595 C 50.987 114.547, 52 113.535, 52 113.345 C 52 113.155, 51.845 113, 51.655 113 C 51.465 113, 50.453 114.013, 49.405 115.250 M 67.079 115.583 C 67.127 116.748, 67.364 116.985, 67.683 116.188 C 67.972 115.466, 67.936 114.603, 67.604 114.271 C 67.272 113.939, 67.036 114.529, 67.079 115.583 M 8.451 128.266 C 8.184 128.963, 8.094 141.225, 8.250 155.516 L 8.535 181.500 8.768 154.781 L 9 128.062 21.250 127.747 L 33.500 127.432 21.219 127.216 C 12.068 127.055, 8.813 127.323, 8.451 128.266 M 50.750 127.706 C 51.987 127.944, 54.013 127.944, 55.250 127.706 C 56.487 127.467, 55.475 127.272, 53 127.272 C 50.525 127.272, 49.513 127.467, 50.750 127.706 M 67.667 127.667 C 67.300 128.033, 67.007 128.821, 67.015 129.417 C 67.025 130.072, 67.340 130.012, 67.814 129.267 C 68.395 128.353, 75.433 127.961, 95.049 127.750 L 121.500 127.465 94.917 127.233 C 80.296 127.105, 68.033 127.300, 67.667 127.667 M 131.451 128.266 C 131.184 128.963, 131.094 141.225, 131.250 155.516 L 131.535 181.500 131.768 154.718 L 132 127.936 158.405 128.218 C 172.928 128.373, 184.602 128.162, 184.346 127.750 C 184.091 127.338, 172.194 127, 157.910 127 C 137.875 127, 131.826 127.290, 131.451 128.266 M 195.384 128.442 C 195.080 129.234, 195.042 130.697, 195.299 131.692 C 195.594 132.830, 195.811 132.441, 195.884 130.641 C 195.992 127.978, 196.241 127.809, 199.500 128.190 C 201.425 128.415, 203 128.239, 203 127.799 C 203 127.360, 201.411 127, 199.469 127 C 197.316 127, 195.721 127.563, 195.384 128.442 M 206.723 138.768 L 194.946 150.585 195.251 166.042 L 195.556 181.500 195.778 165.984 L 196 150.467 207.266 139.234 L 218.531 128 230.749 128 L 242.967 128 243.259 154.750 L 243.551 181.500 243.525 154.500 L 243.500 127.500 231 127.226 L 218.500 126.952 206.723 138.768 M 45.021 139.500 C 51.334 146.100, 56.705 151.370, 56.956 151.211 C 57.206 151.052, 52.041 145.652, 45.476 139.211 L 33.541 127.500 45.021 139.500 M 198.872 131.750 C 197.629 133.336, 197.664 133.371, 199.250 132.128 C 200.213 131.373, 201 130.585, 201 130.378 C 201 130.170, 200.830 130, 200.622 130 C 200.415 130, 199.627 130.787, 198.872 131.750 M 56.397 167 C 56.397 174.975, 56.553 178.238, 56.743 174.250 C 56.932 170.262, 56.932 163.738, 56.743 159.750 C 56.553 155.762, 56.397 159.025, 56.397 167 M 167.453 163.250 L 163.500 167.500 167.750 163.547 C 170.088 161.373, 172 159.460, 172 159.297 C 172 159.134, 171.866 159, 171.703 159 C 171.540 159, 169.627 160.912, 167.453 163.250 M 84 163.500 C 85.866 165.425, 87.617 167, 87.892 167 C 88.167 167, 86.866 165.425, 85 163.500 C 83.134 161.575, 81.383 160, 81.108 160 C 80.833 160, 82.134 161.575, 84 163.500 M 67.160 171.750 C 67.248 177.113, 67.461 180.150, 67.634 178.500 C 67.807 176.850, 68.072 172.462, 68.224 168.748 C 68.376 165.034, 68.162 161.997, 67.750 161.998 C 67.338 161.999, 67.072 166.387, 67.160 171.750 M 179.924 165.750 L 177.500 168.500 180.250 166.076 C 181.762 164.742, 183 163.505, 183 163.326 C 183 163.147, 182.853 163, 182.674 163 C 182.495 163, 181.258 164.238, 179.924 165.750 M 184.328 174.500 C 184.333 178.350, 184.513 179.802, 184.730 177.728 C 184.946 175.653, 184.943 172.503, 184.722 170.728 C 184.501 168.952, 184.324 170.650, 184.328 174.500 M 168.946 176.750 L 165.500 180.500 169.250 177.054 C 171.313 175.158, 173 173.471, 173 173.304 C 173 173.137, 172.863 173, 172.696 173 C 172.529 173, 170.842 174.688, 168.946 176.750 M 83 177.378 C 83 177.585, 83.787 178.373, 84.750 179.128 C 86.336 180.371, 86.371 180.336, 85.128 178.750 C 84.373 177.787, 83.585 177, 83.378 177 C 83.170 177, 83 177.170, 83 177.378 M 8.438 192.300 C 8.164 193.016, 8.080 199.653, 8.251 207.050 L 8.563 220.500 8.782 206.268 L 9 192.036 33.250 191.749 L 57.500 191.463 33.219 191.231 C 14.047 191.049, 8.832 191.274, 8.438 192.300 M 67.667 191.667 C 67.300 192.033, 67 202.807, 67 215.608 C 67 228.409, 67.338 239.091, 67.750 239.347 C 68.162 239.602, 68.372 229.066, 68.215 215.933 L 67.931 192.054 82.715 191.748 L 97.500 191.442 82.917 191.221 C 74.896 191.100, 68.033 191.300, 67.667 191.667 M 114.264 191.718 C 115.784 191.947, 118.034 191.941, 119.264 191.704 C 120.494 191.467, 119.250 191.279, 116.500 191.286 C 113.750 191.294, 112.744 191.488, 114.264 191.718 M 131.394 192.416 C 131.095 193.194, 131.042 195.107, 131.276 196.666 C 131.622 198.980, 131.728 198.793, 131.850 195.641 C 131.998 191.841, 132.054 191.788, 135.500 192.190 C 137.425 192.415, 139 192.239, 139 191.799 C 139 191.360, 137.411 191, 135.469 191 C 133.346 191, 131.721 191.565, 131.394 192.416 M 195.456 192.253 C 195.184 192.963, 195.082 203.884, 195.231 216.522 L 195.500 239.500 209.251 239.544 L 223.003 239.588 209.501 239.266 L 196 238.944 196 215.472 L 196 192 219.471 192 L 242.942 192 243.266 205.001 L 243.591 218.003 243.545 204.751 L 243.500 191.500 219.726 191.232 C 201.042 191.021, 195.845 191.240, 195.456 192.253 M 98 192.313 C 98 192.485, 99.463 193.948, 101.250 195.563 L 104.500 198.500 101.563 195.250 C 99.948 193.463, 98.485 192, 98.313 192 C 98.141 192, 98 192.141, 98 192.313 M 143.222 203.200 L 131.943 214.377 132.222 226.939 L 132.500 239.500 138.500 239.349 C 141.800 239.266, 153.387 239.154, 164.250 239.099 L 184 239 184 215.500 L 184 192 169.250 192.012 L 154.500 192.023 143.222 203.200 M 115 194.378 C 115 194.585, 115.787 195.373, 116.750 196.128 C 118.336 197.371, 118.371 197.336, 117.128 195.750 C 116.373 194.787, 115.585 194, 115.378 194 C 115.170 194, 115 194.170, 115 194.378 M 115.250 209.534 L 120 214.569 120 226.763 L 120 238.958 100.250 239.251 L 80.500 239.545 100.750 239.772 L 121 240 121 227.212 L 121 214.425 115.750 209.462 L 110.500 204.500 115.250 209.534 M 12 230.313 C 12 230.485, 13.462 231.948, 15.250 233.563 L 18.500 236.500 15.563 233.250 C 13.948 231.463, 12.485 230, 12.313 230 C 12.141 230, 12 230.141, 12 230.313 M 236.437 233.250 L 233.500 236.500 236.750 233.563 C 238.537 231.948, 240 230.485, 240 230.313 C 240 230.141, 239.859 230, 239.687 230 C 239.515 230, 238.052 231.463, 236.437 233.250 M 7 240.500 C 8.292 241.875, 9.574 243, 9.849 243 C 10.124 243, 9.292 241.875, 8 240.500 C 6.708 239.125, 5.426 238, 5.151 238 C 4.876 238, 5.708 239.125, 7 240.500 M 244.405 240.250 L 242.500 242.500 244.750 240.595 C 245.988 239.547, 247 238.535, 247 238.345 C 247 238.155, 246.845 238, 246.655 238 C 246.465 238, 245.453 239.012, 244.405 240.250 M 35.206 239.741 C 38.895 239.932, 45.195 239.934, 49.206 239.743 C 53.218 239.553, 50.200 239.396, 42.500 239.395 C 34.800 239.393, 31.518 239.549, 35.206 239.741" stroke="none" fill="#567b8e" fill-rule="evenodd" data-index="0"></path><path d="M 6.924 3.750 L 4.500 6.500 7.250 4.076 C 8.762 2.742, 10 1.505, 10 1.326 C 10 1.147, 9.853 1, 9.674 1 C 9.495 1, 8.258 2.237, 6.924 3.750 M 24.583 5.750 C 24.171 6.162, 23.421 6.556, 22.917 6.625 C 22.413 6.694, 21.569 6.806, 21.042 6.875 C 20.515 6.944, 18.330 8.688, 16.185 10.750 C 14.040 12.813, 11.689 15.625, 10.960 17 C 10.021 18.772, 9.615 24.378, 9.567 36.250 L 9.500 52.999 33.250 53 L 57 53 57 29 L 57 5 41.167 5 C 32.458 5, 24.996 5.338, 24.583 5.750 M 196.607 6.582 C 196.273 7.452, 196 18.252, 196 30.582 L 196 53 219.500 53 L 243 53 243 37.468 C 243 25.688, 242.625 21.038, 241.447 18.218 C 240.593 16.173, 238.680 13.206, 237.197 11.624 C 235.714 10.042, 232.700 7.914, 230.500 6.896 C 227.191 5.364, 223.971 5.040, 211.857 5.022 C 199.414 5.003, 197.123 5.238, 196.607 6.582 M 120.158 27 C 120.158 28.375, 120.385 28.938, 120.662 28.250 C 120.940 27.563, 120.940 26.438, 120.662 25.750 C 120.385 25.063, 120.158 25.625, 120.158 27 M 107.483 42.250 L 96.500 53.500 107.750 42.517 C 113.938 36.476, 119 31.414, 119 31.267 C 119 31.120, 118.880 31, 118.733 31 C 118.586 31, 113.524 36.063, 107.483 42.250 M 9.841 64.750 C 9.753 65.162, 9.641 77.087, 9.591 91.248 L 9.500 116.996 21.500 116.990 L 33.500 116.984 44.708 105.742 L 55.917 94.500 56.208 79.249 L 56.500 63.997 33.250 63.999 C 20.462 63.999, 9.928 64.338, 9.841 64.750 M 196 79.096 L 196 94.191 207.404 105.596 L 218.809 117 230.814 117 L 242.819 117 242.951 90.500 L 243.082 64 219.541 64 L 196 64 196 79.096 M 9.881 128.750 C 9.815 129.162, 9.703 141.087, 9.631 155.250 L 9.500 180.999 32.699 181 L 55.897 181 56.199 166.250 L 56.500 151.500 45.080 139.750 L 33.660 128 21.830 128 C 15.324 128, 9.946 128.338, 9.881 128.750 M 207.195 139.346 L 196 150.693 196 165.846 L 196 181 219.500 181 L 243 181 243 154.500 L 243 128 230.695 128 L 218.389 128 207.195 139.346 M 9.371 208.250 C 9.562 220.881, 9.974 225.168, 11.219 227.500 C 12.100 229.150, 14.099 231.686, 15.661 233.136 C 17.222 234.586, 19.850 236.416, 21.500 237.204 C 23.637 238.223, 29.177 238.711, 40.750 238.899 L 57 239.162 57 215.581 L 57 192 33.062 192 L 9.125 192 9.371 208.250 M 196 215.505 L 196 239.009 211.750 238.894 C 224.791 238.799, 228.102 238.470, 231 236.981 C 232.925 235.992, 235.714 233.904, 237.197 232.342 C 238.680 230.779, 240.528 227.925, 241.303 226 C 242.260 223.622, 242.778 217.610, 242.919 207.250 L 243.127 192 219.563 192 L 196 192 196 215.505 M 71.750 239.723 C 73.537 239.945, 76.463 239.945, 78.250 239.723 C 80.037 239.502, 78.575 239.320, 75 239.320 C 71.425 239.320, 69.963 239.502, 71.750 239.723" stroke="none" fill="#a9e1f0" fill-rule="evenodd" data-index="2"></path><path d="M 7.463 4.592 C 5.008 7.117, 3 9.592, 3 10.092 C 3 10.591, 3 11.338, 3 11.750 C 3 12.162, 3.900 12.500, 5 12.500 C 6.100 12.500, 7 12.838, 7 13.250 C 7 13.662, 7 14.398, 7 14.883 C 7 15.369, 6.035 16.019, 4.856 16.327 C 3.247 16.748, 2.997 16.603, 3.856 15.744 C 4.485 15.115, 5 14.336, 5 14.013 C 5 13.690, 4.144 13.361, 3.098 13.282 C 1.983 13.198, 0.988 13.938, 0.692 15.071 C 0.356 16.355, 0.574 16.770, 1.343 16.309 C 2.120 15.844, 2.096 16.115, 1.271 17.136 C 0.316 18.316, 0.039 42.088, 0.029 123.578 L 0.016 228.500 2.968 233.644 C 4.591 236.473, 7.625 240.195, 9.710 241.914 C 11.794 243.634, 15.075 245.479, 17 246.015 C 19.169 246.619, 60.877 246.991, 126.691 246.994 C 195.592 246.998, 233.097 246.653, 233.493 246.011 C 233.831 245.464, 233.469 245.266, 232.681 245.569 C 231.898 245.869, 231.016 245.484, 230.720 244.714 C 230.320 243.670, 230.835 243.437, 232.740 243.801 C 234.658 244.168, 235.096 243.965, 234.494 242.990 C 233.979 242.158, 234.085 241.935, 234.788 242.369 C 235.392 242.742, 237.517 241.417, 239.510 239.424 C 242.050 236.883, 243.039 236.340, 242.817 237.607 C 242.643 238.601, 241.600 240.334, 240.500 241.457 C 239.400 242.581, 238.185 243.500, 237.800 243.500 C 237.415 243.500, 236.537 244.063, 235.850 244.750 C 235.002 245.598, 234.961 246, 235.722 246 C 236.340 246, 238.749 244.538, 241.078 242.750 C 243.406 240.963, 245.803 238.639, 246.405 237.588 C 247.007 236.536, 248.315 234.821, 249.311 233.777 C 250.594 232.431, 251.031 230.688, 250.811 227.791 C 250.621 225.299, 250.960 223.542, 251.678 223.292 C 252.347 223.059, 253.039 224.096, 253.279 225.691 C 253.512 227.236, 253.757 180.800, 253.824 122.500 C 253.898 57.760, 253.588 17.073, 253.027 17.971 C 252.522 18.780, 251.861 19.194, 251.557 18.891 C 251.254 18.587, 250.906 17.138, 250.785 15.669 C 250.663 14.201, 250.137 13, 249.615 13 C 249.094 13, 248.951 12.716, 249.298 12.369 C 249.645 12.021, 249.480 10.896, 248.930 9.869 C 248.380 8.841, 247.469 8, 246.906 8 C 246.343 8, 246.211 8.562, 246.613 9.250 C 247.015 9.937, 246.366 9.643, 245.172 8.595 C 243.963 7.534, 243 7.202, 243 7.845 C 243 8.480, 243.477 9, 244.059 9 C 244.641 9, 244.862 9.414, 244.550 9.919 C 244.237 10.425, 244.620 11.477, 245.400 12.257 C 246.321 13.179, 246.505 14.171, 245.925 15.088 C 245.201 16.230, 245.028 16.166, 245.015 14.750 C 245.006 13.645, 244.228 13, 242.906 13 C 241.731 13, 240.606 12.210, 240.342 11.200 C 240.083 10.211, 238.957 8.830, 237.838 8.131 C 236.720 7.433, 235.512 7.155, 235.153 7.513 C 234.795 7.872, 235.967 9.475, 237.758 11.075 C 239.549 12.675, 241.048 14.325, 241.090 14.742 C 241.132 15.159, 241.354 15.688, 241.583 15.917 C 241.813 16.146, 242 15.808, 242 15.167 C 242 14.525, 242.375 14, 242.833 14 C 243.292 14, 243.667 14.675, 243.667 15.500 C 243.667 16.325, 243.306 17, 242.865 17 C 242.424 17, 242.230 17.562, 242.435 18.250 C 242.640 18.938, 243.113 20.400, 243.486 21.500 C 243.859 22.600, 244.105 30.009, 244.034 37.965 C 243.962 45.920, 243.811 52.523, 243.697 52.637 C 243.583 52.750, 236.067 52.921, 226.995 53.016 C 217.923 53.110, 207.004 53.146, 202.732 53.094 L 194.964 53 195.232 28.750 L 195.500 4.500 211.500 4.566 C 224.459 4.620, 228.107 4.952, 230.693 6.312 C 232.521 7.274, 234.134 7.593, 234.464 7.058 C 234.782 6.544, 234.245 5.659, 233.271 5.092 C 232.297 4.525, 231.795 4.047, 232.155 4.030 C 232.516 4.014, 234.654 4.983, 236.905 6.186 C 239.157 7.388, 241 8.936, 241 9.627 C 241 10.317, 241.498 11.190, 242.107 11.566 C 242.866 12.035, 242.986 11.504, 242.489 9.875 C 242.090 8.569, 241.058 6.697, 240.195 5.715 C 239.332 4.733, 237.923 4.161, 237.063 4.444 C 236.203 4.727, 236.513 4.238, 237.750 3.357 C 238.988 2.477, 240 1.361, 240 0.878 C 240 0.395, 229.683 0, 217.073 0 C 196.079 0, 194.108 0.148, 193.689 1.750 C 193.254 3.417, 193.226 3.417, 193.116 1.750 C 193.006 0.097, 187.978 0, 102.463 0 L 11.925 0 7.463 4.592 M 239.575 2.879 C 239.265 3.380, 239.684 4.048, 240.506 4.364 C 241.328 4.679, 242 4.528, 242 4.028 C 242 3.527, 241.581 2.859, 241.069 2.543 C 240.557 2.226, 239.885 2.378, 239.575 2.879 M 26 4.936 C 24.075 5.325, 21.078 6.389, 19.340 7.300 C 17.602 8.212, 14.829 10.597, 13.178 12.600 C 11.527 14.603, 9.687 18.186, 9.088 20.564 C 8.490 22.941, 8 31.196, 8 38.908 L 8 52.930 31.508 53.215 C 44.438 53.372, 55.463 53.350, 56.008 53.167 C 56.628 52.958, 57 43.670, 57 28.417 L 57 4 43.250 4.115 C 35.688 4.178, 27.925 4.548, 26 4.936 M 66.784 28.750 L 67.068 53 82.300 53 L 97.531 53 109.266 41.235 L 121 29.470 121 17.266 L 121 5.062 93.750 4.781 L 66.500 4.500 66.784 28.750 M 140.750 4.786 L 131 5.072 131 17.367 L 131 29.661 142.750 41.321 L 154.500 52.981 169.750 52.991 L 185 53 185 49.845 C 185 46.852, 185.094 46.775, 186.829 48.345 C 187.835 49.255, 189.020 50, 189.464 50 C 189.907 50, 189.081 49.065, 187.627 47.921 L 184.984 45.843 185.046 25.808 C 185.080 14.789, 184.820 5.487, 184.469 5.137 C 184.119 4.787, 176.332 4.500, 167.166 4.500 C 158 4.500, 146.113 4.629, 140.750 4.786 M 189 5.941 C 189 6.459, 189.450 7.160, 190 7.500 C 190.550 7.840, 191 7.416, 191 6.559 C 191 5.702, 190.550 5, 190 5 C 189.450 5, 189 5.423, 189 5.941 M 8 11 C 8 11.550, 8.450 12, 9 12 C 9.550 12, 10 11.550, 10 11 C 10 10.450, 9.550 10, 9 10 C 8.450 10, 8 10.450, 8 11 M 247.469 16.050 C 247.101 16.646, 246.970 17.304, 247.179 17.512 C 247.387 17.721, 248.155 17.522, 248.886 17.071 C 249.745 16.539, 249.848 16.024, 249.176 15.609 C 248.605 15.256, 247.837 15.455, 247.469 16.050 M 0.320 24 C 0.320 27.575, 0.502 29.038, 0.723 27.250 C 0.945 25.462, 0.945 22.538, 0.723 20.750 C 0.502 18.962, 0.320 20.425, 0.320 24 M 0.463 79.500 C 0.463 106.450, 0.592 117.331, 0.749 103.681 C 0.907 90.030, 0.906 67.980, 0.749 54.681 C 0.592 41.381, 0.463 52.550, 0.463 79.500 M 130.710 35 C 130.998 36.100, 131.872 37, 132.652 37 C 133.760 37, 133.837 36.563, 133 35 C 132.411 33.900, 131.538 33, 131.058 33 C 130.579 33, 130.423 33.900, 130.710 35 M 116.528 47.836 C 114.343 50.040, 112.147 51.591, 111.648 51.282 C 111.149 50.974, 110.939 51.317, 111.182 52.045 C 111.460 52.880, 113.187 53.346, 115.855 53.308 C 118.183 53.274, 120.321 53.012, 120.606 52.727 C 120.892 52.442, 120.985 50.323, 120.813 48.019 L 120.500 43.829 116.528 47.836 M 144 44.806 C 144 45.328, 144.675 46.315, 145.500 47 C 146.325 47.685, 147 47.933, 147 47.551 C 147 47.169, 146.325 46.182, 145.500 45.357 C 144.675 44.532, 144 44.284, 144 44.806 M 131 48.872 C 131 52.637, 131.114 52.763, 135.134 53.405 C 137.407 53.769, 139.515 53.818, 139.819 53.515 C 140.122 53.211, 138.620 51.172, 136.482 48.982 C 134.344 46.792, 132.235 45, 131.797 45 C 131.359 45, 131 46.742, 131 48.872 M 111.695 47.943 C 111.991 49.074, 112.631 50, 113.117 50 C 113.602 50, 114 49.605, 114 49.122 C 114 48.640, 113.360 47.714, 112.579 47.065 C 111.412 46.097, 111.254 46.255, 111.695 47.943 M 139 49.035 C 139 49.501, 139.489 50.184, 140.087 50.554 C 140.685 50.923, 141.615 50.785, 142.153 50.247 C 142.792 49.608, 142.414 49.080, 141.066 48.728 C 139.930 48.430, 139 48.569, 139 49.035 M 148 49.409 C 148 49.599, 148.675 50.315, 149.500 51 C 150.365 51.718, 151 51.815, 151 51.229 C 151 50.671, 150.325 49.955, 149.500 49.638 C 148.675 49.322, 148 49.219, 148 49.409 M 144.813 52.683 C 145.534 52.972, 146.397 52.936, 146.729 52.604 C 147.061 52.272, 146.471 52.036, 145.417 52.079 C 144.252 52.127, 144.015 52.364, 144.813 52.683 M 189.813 52.683 C 190.534 52.972, 191.397 52.936, 191.729 52.604 C 192.061 52.272, 191.471 52.036, 190.417 52.079 C 189.252 52.127, 189.015 52.364, 189.813 52.683 M 87.613 55.183 C 87.902 55.650, 88.557 55.774, 89.069 55.457 C 89.581 55.141, 90 54.759, 90 54.608 C 90 54.457, 89.345 54.333, 88.544 54.333 C 87.743 54.333, 87.324 54.716, 87.613 55.183 M 187.459 55.067 C 187.096 55.653, 187.014 56.348, 187.276 56.610 C 187.538 56.872, 188.019 56.392, 188.345 55.543 C 188.671 54.694, 188.753 54, 188.528 54 C 188.302 54, 187.821 54.480, 187.459 55.067 M 75.270 56.250 C 75.511 56.938, 76.448 57.368, 77.354 57.206 C 78.259 57.045, 79 57.457, 79 58.123 C 79 58.789, 79.289 59.044, 79.643 58.691 C 79.996 58.337, 79.716 57.362, 79.020 56.524 C 78.324 55.686, 77.098 55, 76.294 55 C 75.491 55, 75.030 55.563, 75.270 56.250 M 10.376 57.538 C 10.712 58.413, 10.327 59.321, 9.483 59.645 C 8.667 59.958, 8 60.671, 8 61.229 C 8 61.828, 8.597 61.749, 9.456 61.036 C 10.257 60.372, 11.317 60.078, 11.812 60.384 C 12.306 60.689, 12.499 59.828, 12.239 58.470 C 11.979 57.111, 11.321 56, 10.776 56 C 10.232 56, 10.052 56.692, 10.376 57.538 M 14.380 57.452 C 14.074 58.251, 14.114 59.376, 14.470 59.952 C 14.827 60.528, 15.879 60.948, 16.809 60.884 C 18.291 60.782, 18.278 60.710, 16.708 60.303 C 15.465 59.980, 15.103 59.251, 15.526 57.919 C 15.861 56.863, 15.865 56, 15.536 56 C 15.207 56, 14.686 56.653, 14.380 57.452 M 67.507 56.989 C 67.157 57.555, 67.558 57.723, 68.448 57.382 C 69.302 57.054, 70 56.609, 70 56.393 C 70 56.177, 69.577 56, 69.059 56 C 68.541 56, 67.843 56.445, 67.507 56.989 M 120.158 58 C 120.158 59.375, 120.385 59.938, 120.662 59.250 C 120.940 58.563, 120.940 57.438, 120.662 56.750 C 120.385 56.063, 120.158 56.625, 120.158 58 M 55 59.059 C 55 60.191, 55.450 60.840, 56 60.500 C 56.550 60.160, 57 59.234, 57 58.441 C 57 57.648, 56.550 57, 56 57 C 55.450 57, 55 57.927, 55 59.059 M 183.211 59.603 C 182.145 60.758, 182.223 61, 183.661 61 C 184.898 61, 185.091 61.309, 184.328 62.072 C 183.667 62.733, 179.583 63.020, 173.661 62.822 L 164.065 62.500 168.241 66.750 C 170.537 69.088, 171.921 71, 171.315 71 C 170.710 71, 169.990 71.583, 169.717 72.295 C 169.425 73.055, 170.010 73.650, 171.131 73.735 C 172.183 73.814, 172.782 73.456, 172.463 72.939 C 172.143 72.423, 172.261 72, 172.725 72 C 173.189 72, 176.013 74.475, 179 77.500 C 181.987 80.525, 184.672 83, 184.966 83.001 C 185.260 83.002, 185.345 78.502, 185.156 73.001 C 184.841 63.829, 184.965 62.999, 186.656 62.985 C 187.763 62.975, 188.066 62.676, 187.415 62.235 C 186.818 61.831, 185.918 60.759, 185.415 59.853 C 184.635 58.450, 184.310 58.413, 183.211 59.603 M 157 60.229 C 157 60.836, 157.301 61.032, 157.669 60.664 C 158.037 60.297, 159.117 60.701, 160.070 61.563 C 161.248 62.629, 162.017 62.782, 162.475 62.040 C 162.850 61.434, 162.562 61.072, 161.824 61.225 C 161.096 61.376, 160.581 61.031, 160.681 60.458 C 160.780 59.884, 159.993 59.350, 158.931 59.270 C 157.869 59.190, 157 59.621, 157 60.229 M 84.358 61.347 C 84.968 63.072, 84.401 63.171, 75.756 62.847 L 66.500 62.500 66.803 73 L 67.105 83.500 76.903 73.767 C 82.291 68.414, 86.993 64.326, 87.350 64.684 C 87.708 65.041, 88 65.015, 88 64.625 C 88 64.235, 87.034 62.923, 85.853 61.708 C 84.042 59.847, 83.808 59.790, 84.358 61.347 M 57 61.833 C 57 62.690, 50.500 63, 32.500 63 L 8 63 8 90 L 8 117 20.849 117 L 33.697 117 45.099 105.448 L 56.500 93.896 57 77.698 C 57.275 68.789, 57.388 61.313, 57.250 61.083 C 57.112 60.854, 57 61.192, 57 61.833 M 151.651 63.468 C 151.341 64.275, 151.518 65.202, 152.044 65.527 C 152.570 65.852, 153 65.191, 153 64.059 C 153 62.927, 152.823 62, 152.607 62 C 152.391 62, 151.960 62.661, 151.651 63.468 M 194.789 78 L 195.078 93.500 206.774 105.250 L 218.469 117 231.234 117 L 244 117 244 90.033 L 244 63.067 219.250 62.783 L 194.500 62.500 194.789 78 M 113.250 64.517 C 109.813 65.263, 104.151 67.277, 100.669 68.992 C 97.186 70.706, 91.602 74.322, 88.260 77.026 C 84.726 79.885, 80.097 85.061, 77.198 89.396 C 74.457 93.495, 71.287 99.695, 70.155 103.174 C 69.023 106.653, 67.800 111.188, 67.437 113.250 L 66.777 117 93.889 117 L 121 117 121 90 C 121 75.150, 120.662 63.036, 120.250 63.079 C 119.838 63.123, 116.688 63.770, 113.250 64.517 M 131 89.933 L 131 117 157.998 117 L 184.996 117 184.614 113.250 C 184.403 111.188, 183.910 108.600, 183.518 107.500 C 183.125 106.400, 182.177 103.813, 181.410 101.750 C 180.644 99.688, 180.270 98, 180.580 98 C 180.889 98, 180.432 97.289, 179.562 96.419 C 178.693 95.550, 178.208 94.472, 178.485 94.024 C 178.762 93.576, 178.252 92.927, 177.351 92.581 C 176.451 92.236, 175.979 91.688, 176.303 91.364 C 176.626 91.040, 175.568 89.363, 173.950 87.638 C 172.333 85.912, 170.988 84.050, 170.962 83.500 C 170.936 82.950, 168.617 80.700, 165.808 78.500 C 162.999 76.300, 159.194 73.561, 157.353 72.414 C 155.511 71.267, 154.341 69.958, 154.752 69.504 C 155.164 69.050, 154.953 68.994, 154.284 69.377 C 153.616 69.761, 151.366 69.220, 149.284 68.174 C 147.203 67.127, 143.025 65.721, 140 65.048 C 136.975 64.376, 133.713 63.609, 132.750 63.345 C 131.115 62.897, 131 64.638, 131 89.933 M 60.500 65 C 60.840 65.550, 61.541 66, 62.059 66 C 62.577 66, 63 65.550, 63 65 C 63 64.450, 62.298 64, 61.441 64 C 60.584 64, 60.160 64.450, 60.500 65 M 161.608 65.685 C 161.762 66.337, 161.350 67.089, 160.694 67.356 C 160.037 67.624, 160.625 67.871, 162 67.906 C 163.375 67.941, 165.175 67.533, 166 67 C 167.175 66.241, 166.922 66.027, 164.833 66.015 C 163.367 66.007, 161.978 65.662, 161.747 65.250 C 161.517 64.838, 161.454 65.033, 161.608 65.685 M 189.813 64.683 C 190.534 64.972, 191.397 64.936, 191.729 64.604 C 192.061 64.272, 191.471 64.036, 190.417 64.079 C 189.252 64.127, 189.015 64.364, 189.813 64.683 M 155.564 66.707 C 155.022 68.132, 155.136 68.247, 156.124 67.267 C 156.808 66.588, 157.115 65.781, 156.807 65.474 C 156.499 65.166, 155.940 65.721, 155.564 66.707 M 150.750 67.662 C 151.438 67.940, 152.563 67.940, 153.250 67.662 C 153.938 67.385, 153.375 67.158, 152 67.158 C 150.625 67.158, 150.063 67.385, 150.750 67.662 M 164.345 69.543 C 164.019 70.392, 164.034 71.367, 164.376 71.710 C 164.719 72.053, 165 71.808, 165 71.167 C 165 70.525, 165.702 70, 166.559 70 C 167.416 70, 167.840 70.450, 167.500 71 C 167.160 71.550, 167.284 72, 167.774 72 C 168.265 72, 168.936 71.731, 169.264 71.402 C 169.593 71.073, 169.620 70.173, 169.324 69.402 C 169.028 68.631, 167.920 68, 166.862 68 C 165.803 68, 164.671 68.694, 164.345 69.543 M 69.692 83.359 C 69.388 84.153, 69.670 84.725, 70.319 84.629 C 70.969 84.534, 71.646 84.027, 71.825 83.503 C 72.004 82.979, 71.722 82.407, 71.198 82.233 C 70.675 82.058, 69.997 82.565, 69.692 83.359 M 67 89.941 C 67 91.073, 67.177 92, 67.393 92 C 67.609 92, 68.040 91.339, 68.349 90.532 C 68.659 89.725, 68.482 88.798, 67.956 88.473 C 67.430 88.148, 67 88.809, 67 89.941 M 195.116 100.781 C 195.183 102.940, 195.438 103.661, 195.724 102.500 C 195.994 101.400, 196.628 99.990, 197.133 99.367 C 197.729 98.631, 197.516 98.028, 196.526 97.648 C 195.316 97.184, 195.024 97.832, 195.116 100.781 M 191 100.882 C 191 101.432, 191.450 102.160, 192 102.500 C 192.550 102.840, 193 102.668, 193 102.118 C 193 101.568, 192.550 100.840, 192 100.500 C 191.450 100.160, 191 100.332, 191 100.882 M 205.500 108 C 206.495 109.100, 207.535 110, 207.810 110 C 208.085 110, 207.495 109.100, 206.500 108 C 205.505 106.900, 204.465 106, 204.190 106 C 203.915 106, 204.505 106.900, 205.500 108 M 51.838 112.426 C 49.273 114.855, 47.329 116.996, 47.517 117.184 C 47.705 117.372, 49.916 117.362, 52.429 117.162 L 57 116.799 57 112.399 C 57 109.980, 56.888 108.003, 56.750 108.006 C 56.612 108.009, 54.402 109.998, 51.838 112.426 M 195 112.872 C 195 116.637, 195.114 116.763, 199.134 117.405 C 201.407 117.769, 203.515 117.818, 203.819 117.515 C 204.122 117.211, 202.620 115.172, 200.482 112.982 C 198.344 110.792, 196.235 109, 195.797 109 C 195.359 109, 195 110.742, 195 112.872 M 206.507 111.989 C 206.157 112.555, 206.558 112.723, 207.448 112.382 C 208.302 112.054, 209 111.609, 209 111.393 C 209 111.177, 208.577 111, 208.059 111 C 207.541 111, 206.843 111.445, 206.507 111.989 M 209.096 114.250 C 208.348 116.253, 208.643 116.584, 211.779 117.266 C 213.716 117.687, 215.534 117.799, 215.818 117.516 C 216.101 117.232, 215.583 117, 214.667 117 C 213.750 117, 213 116.523, 213 115.941 C 213 115.359, 213.520 115.203, 214.155 115.595 C 214.899 116.055, 215.036 115.868, 214.542 115.067 C 213.989 114.173, 213.470 114.130, 212.687 114.913 C 212.089 115.511, 211.188 116, 210.683 116 C 210.179 116, 210.002 115.100, 210.290 114 C 210.577 112.900, 210.615 112, 210.374 112 C 210.133 112, 209.558 113.013, 209.096 114.250 M 37.667 115.667 C 37.300 116.033, 37 116.798, 37 117.367 C 37 117.993, 37.466 117.934, 38.183 117.217 C 38.834 116.566, 39.134 115.801, 38.850 115.517 C 38.566 115.233, 38.033 115.300, 37.667 115.667 M 11.250 119.718 C 10.563 119.965, 10 120.551, 10 121.021 C 10 121.491, 10.900 121.808, 12 121.725 C 13.100 121.642, 14 121.247, 14 120.846 C 14 120.446, 13.662 119.927, 13.250 119.694 C 12.838 119.461, 11.938 119.472, 11.250 119.718 M 38.325 120.658 C 38.687 121.020, 38.424 122.032, 37.741 122.908 C 36.643 124.317, 36.702 124.342, 38.250 123.128 C 39.212 122.373, 40 121.360, 40 120.878 C 40 120.395, 39.475 120, 38.833 120 C 38.192 120, 37.963 120.296, 38.325 120.658 M 52 121 C 52 121.550, 52.477 122, 53.059 122 C 53.641 122, 53.840 121.550, 53.500 121 C 53.160 120.450, 52.684 120, 52.441 120 C 52.198 120, 52 120.450, 52 121 M 56.158 122 C 56.158 123.375, 56.385 123.938, 56.662 123.250 C 56.940 122.563, 56.940 121.438, 56.662 120.750 C 56.385 120.063, 56.158 120.625, 56.158 122 M 9.250 123.731 C 8.563 123.970, 8 124.634, 8 125.206 C 8 125.895, 8.446 125.875, 9.324 125.146 C 10.290 124.344, 10.965 124.365, 11.824 125.224 C 12.624 126.024, 13 126.051, 13 125.307 C 13 124.706, 12.438 124.007, 11.750 123.754 C 11.063 123.501, 9.938 123.491, 9.250 123.731 M 121.446 124.087 C 121.077 124.685, 121.179 125.579, 121.673 126.073 C 122.204 126.604, 122.571 126.160, 122.571 124.986 C 122.571 123.894, 122.469 123, 122.345 123 C 122.220 123, 121.816 123.489, 121.446 124.087 M 184.655 125.457 C 184.142 126.794, 180.522 127, 157.531 127 L 131 127 131 154 C 131 178.123, 131.171 181, 132.606 181 C 133.489 181, 136.969 180.286, 140.339 179.412 C 143.709 178.539, 149.026 176.554, 152.156 175.002 C 155.285 173.449, 158.177 172.476, 158.583 172.839 C 158.989 173.203, 159.048 173.020, 158.715 172.433 C 158.381 171.847, 159.379 170.616, 160.932 169.699 C 162.485 168.782, 166.367 165.212, 169.558 161.766 C 173.361 157.660, 176.631 152.742, 179.044 147.500 C 181.069 143.100, 183.501 136.201, 184.449 132.169 C 185.396 128.137, 185.964 124.630, 185.709 124.376 C 185.455 124.122, 184.981 124.608, 184.655 125.457 M 211 125.500 C 211 126.367, 211.595 126.709, 212.500 126.362 C 213.325 126.045, 214 125.657, 214 125.500 C 214 125.343, 213.325 124.955, 212.500 124.638 C 211.595 124.291, 211 124.633, 211 125.500 M 57.733 126.124 C 58.412 126.808, 59.219 127.115, 59.526 126.807 C 59.834 126.499, 59.279 125.940, 58.293 125.564 C 56.868 125.022, 56.753 125.136, 57.733 126.124 M 66.452 128 C 66.688 128.825, 67.381 131.525, 67.991 134 C 68.602 136.475, 69.750 140.188, 70.543 142.250 C 71.335 144.313, 71.730 146, 71.420 146 C 71.111 146, 71.586 146.728, 72.476 147.619 C 73.940 149.083, 73.947 149.401, 72.543 150.952 C 71.221 152.414, 71.207 152.667, 72.452 152.667 C 73.255 152.667, 73.680 152.292, 73.397 151.833 C 73.114 151.375, 73.250 151, 73.700 151 C 74.151 151, 75.010 151.787, 75.610 152.750 C 76.210 153.713, 76.542 155.625, 76.348 157 C 76.073 158.943, 76.218 159.166, 76.997 158 C 77.889 156.667, 78.109 156.667, 78.985 158 C 79.526 158.825, 79.976 160.250, 79.985 161.167 C 79.993 162.083, 79.438 163.092, 78.750 163.407 C 78.063 163.723, 78.513 163.730, 79.750 163.423 C 81.123 163.083, 82 163.323, 82 164.040 C 82 164.690, 82.692 164.948, 83.552 164.618 C 84.442 164.277, 84.843 164.445, 84.493 165.011 C 84.157 165.555, 84.610 166, 85.500 166 C 86.390 166, 86.867 166.406, 86.560 166.903 C 86.253 167.399, 87.352 168.276, 89.001 168.851 C 90.651 169.426, 92 170.396, 92 171.007 C 92 171.618, 92.422 171.857, 92.939 171.538 C 93.455 171.219, 94.323 171.755, 94.868 172.729 C 95.413 173.703, 96.124 174.370, 96.447 174.211 C 96.770 174.052, 99.123 174.845, 101.675 175.974 C 104.227 177.103, 108.897 178.696, 112.052 179.513 C 115.207 180.331, 118.511 181, 119.394 181 C 120.829 181, 121 178.125, 121 154.031 L 121 127.062 93.511 126.781 C 69.465 126.535, 66.076 126.688, 66.452 128 M 8 154 L 8 181 32.500 181 L 57 181 57 165.734 L 57 150.469 45.235 138.734 L 33.470 127 20.735 127 L 8 127 8 154 M 48.333 128.597 C 48.333 129.476, 49.375 130.669, 50.647 131.249 C 51.920 131.829, 53.212 133.094, 53.519 134.059 C 53.825 135.025, 54.734 136.068, 55.538 136.376 C 56.700 136.822, 57 135.917, 57 131.969 L 57 127 52.667 127 C 49.364 127, 48.333 127.380, 48.333 128.597 M 195 132 C 195 134.750, 195.243 137, 195.540 137 C 195.836 137, 197.861 135.182, 200.040 132.960 C 202.218 130.737, 204 128.487, 204 127.960 C 204 127.432, 201.975 127, 199.500 127 L 195 127 195 132 M 206.734 138.765 L 195 150.530 195 165.765 L 195 181 203.250 181.133 C 207.787 181.206, 212.850 181.246, 214.500 181.221 C 216.150 181.196, 223.463 181.136, 230.750 181.088 L 244 181 244 154 L 244 127 231.234 127 L 218.469 127 206.734 138.765 M 37.500 129 C 37.840 129.550, 39.018 130, 40.118 130 C 41.218 130, 41.840 129.550, 41.500 129 C 41.160 128.450, 39.982 128, 38.882 128 C 37.782 128, 37.160 128.450, 37.500 129 M 0.464 179 C 0.464 206.775, 0.592 218.138, 0.749 204.250 C 0.906 190.363, 0.906 167.638, 0.749 153.750 C 0.592 139.863, 0.464 151.225, 0.464 179 M 199.131 136.342 C 198.519 137.080, 198.313 137.980, 198.675 138.342 C 199.037 138.704, 199.680 139, 200.105 139 C 200.529 139, 200.808 138.100, 200.725 137 C 200.642 135.900, 200.500 135, 200.410 135 C 200.319 135, 199.744 135.604, 199.131 136.342 M 56.158 144 C 56.158 145.375, 56.385 145.938, 56.662 145.250 C 56.940 144.563, 56.940 143.438, 56.662 142.750 C 56.385 142.063, 56.158 142.625, 56.158 144 M 61 145.941 C 61 146.459, 61.445 147.157, 61.989 147.493 C 62.555 147.843, 62.723 147.442, 62.382 146.552 C 62.054 145.698, 61.609 145, 61.393 145 C 61.177 145, 61 145.423, 61 145.941 M 77.564 160.707 C 77.022 162.132, 77.136 162.247, 78.124 161.267 C 78.808 160.588, 79.115 159.781, 78.807 159.474 C 78.499 159.166, 77.940 159.721, 77.564 160.707 M 67.441 161.892 C 67.199 162.135, 67 166.533, 67 171.667 L 67 181 77.441 181 C 84.254 181, 88.130 180.599, 88.595 179.845 C 89.003 179.186, 88.873 178.960, 88.291 179.320 C 87.732 179.666, 82.911 175.787, 77.578 170.700 C 72.246 165.613, 67.684 161.649, 67.441 161.892 M 174.770 170.641 C 169.418 175.929, 165.212 180.536, 165.421 180.878 C 165.631 181.220, 170.122 181.357, 175.401 181.181 L 185 180.863 185 170.931 C 185 165.469, 184.887 161.006, 184.750 161.013 C 184.613 161.020, 180.121 165.353, 174.770 170.641 M 165.750 168.662 C 166.438 168.940, 167.563 168.940, 168.250 168.662 C 168.938 168.385, 168.375 168.158, 167 168.158 C 165.625 168.158, 165.063 168.385, 165.750 168.662 M 162.441 171.468 C 161.374 172.276, 160.950 172.936, 161.500 172.936 C 162.050 172.936, 163.374 172.276, 164.441 171.468 C 165.509 170.661, 165.932 170, 165.382 170 C 164.832 170, 163.509 170.661, 162.441 171.468 M 87.100 172.705 C 87.829 173.917, 88.640 174.694, 88.903 174.431 C 89.166 174.168, 88.570 173.176, 87.579 172.226 C 85.857 170.577, 85.835 170.598, 87.100 172.705 M 154.603 176.833 C 154.320 177.292, 154.743 177.667, 155.544 177.667 C 156.345 177.667, 157 177.292, 157 176.833 C 157 176.375, 156.577 176, 156.059 176 C 155.541 176, 154.886 176.375, 154.603 176.833 M 151.500 179 C 151.840 179.550, 152.316 180, 152.559 180 C 152.802 180, 153 179.550, 153 179 C 153 178.450, 152.523 178, 151.941 178 C 151.359 178, 151.160 178.450, 151.500 179 M 155 180 C 155 180.550, 155.477 181, 156.059 181 C 156.641 181, 156.840 180.550, 156.500 180 C 156.160 179.450, 155.684 179, 155.441 179 C 155.198 179, 155 179.450, 155 180 M 189.500 180 C 187.592 180.820, 187.603 180.863, 189.750 180.930 C 190.988 180.968, 192 180.550, 192 180 C 192 179.450, 191.887 179.032, 191.750 179.070 C 191.613 179.109, 190.600 179.527, 189.500 180 M 185.750 183.080 C 184.787 183.641, 184 184.977, 184 186.050 C 184 187.149, 183.320 188, 182.441 188 C 181.556 188, 181.178 188.478, 181.566 189.107 C 182.038 189.871, 181.514 189.977, 179.875 189.450 C 178.569 189.030, 176.825 188.697, 176 188.710 C 175.175 188.723, 173.693 188.032, 172.707 187.173 C 171.069 185.747, 170.971 185.760, 171.568 187.317 C 172.078 188.647, 171.831 188.872, 170.447 188.341 C 169.128 187.835, 168.884 188.004, 169.500 189 C 170.102 189.974, 169.882 190.169, 168.696 189.714 C 167.798 189.369, 166.840 189.449, 166.567 189.892 C 166.293 190.334, 164.366 190.410, 162.285 190.059 C 159.294 189.556, 158.546 189.010, 158.721 187.461 C 158.842 186.382, 158.701 186.037, 158.406 186.694 C 158.112 187.350, 157.112 187.645, 156.185 187.349 C 155.058 186.990, 154.897 187.100, 155.697 187.682 C 156.485 188.255, 156.576 189.057, 155.963 190.026 C 155.450 190.837, 155.024 191.219, 155.015 190.875 C 155.007 190.531, 149.713 195.613, 143.250 202.168 C 136.787 208.723, 131.275 214.717, 131 215.488 C 130.725 216.259, 130.640 222.090, 130.811 228.445 L 131.121 240 149.811 240.101 C 160.090 240.157, 171.875 240.135, 176 240.052 C 180.125 239.969, 183.827 239.573, 184.227 239.173 C 184.627 238.773, 184.982 230.357, 185.016 220.473 C 185.049 210.588, 185.336 200.137, 185.653 197.250 C 186.039 193.745, 186.687 192, 187.604 192 C 188.447 192, 188.900 191.062, 188.777 189.572 C 188.666 188.237, 188.191 187.382, 187.720 187.673 C 187.249 187.964, 187.120 188.944, 187.434 189.851 C 187.855 191.067, 187.611 190.990, 186.502 189.559 C 185.676 188.491, 185 186.756, 185 185.702 C 185 184.410, 185.488 183.973, 186.500 184.362 C 187.414 184.712, 188 184.363, 188 183.469 C 188 182.661, 187.887 182.014, 187.750 182.030 C 187.613 182.047, 186.713 182.519, 185.750 183.080 M 10.393 185.582 C 10.727 186.452, 11 187.529, 11 187.976 C 11 188.423, 12.029 188.724, 13.286 188.646 C 14.743 188.555, 15.571 187.869, 15.571 186.752 C 15.571 185.788, 15.266 185, 14.893 185 C 14.519 185, 13.917 185.775, 13.553 186.722 C 13.002 188.159, 12.747 188.208, 12.012 187.020 C 11.528 186.236, 11.354 185.237, 11.625 184.798 C 11.896 184.359, 11.593 184, 10.952 184 C 10.300 184, 10.053 184.697, 10.393 185.582 M 55.500 185 C 55.160 185.550, 55.136 186.412, 55.447 186.915 C 55.758 187.418, 55.672 188.019, 55.256 188.251 C 54.840 188.483, 55.063 188.535, 55.750 188.367 C 56.438 188.200, 57 188.724, 57 189.531 C 57 190.339, 57.372 191, 57.827 191 C 58.282 191, 58.566 192.238, 58.459 193.750 C 58.349 195.308, 58.465 195.633, 58.728 194.500 C 58.983 193.400, 59.711 191.851, 60.346 191.058 C 61.229 189.954, 61.217 189.786, 60.293 190.341 C 59.539 190.793, 58.520 189.973, 57.582 188.159 C 56.756 186.561, 56.362 184.972, 56.707 184.627 C 57.051 184.282, 57.060 184, 56.726 184 C 56.391 184, 55.840 184.450, 55.500 185 M 81 184.339 C 81 184.534, 81.900 185.732, 83 187 C 84.301 188.500, 85 188.812, 85 187.894 C 85 187.117, 84.100 185.919, 83 185.232 C 81.900 184.545, 81 184.143, 81 184.339 M 120.079 185.583 C 120.127 186.748, 120.364 186.985, 120.683 186.188 C 120.972 185.466, 120.936 184.603, 120.604 184.271 C 120.272 183.939, 120.036 184.529, 120.079 185.583 M 160.079 185.583 C 160.127 186.748, 160.364 186.985, 160.683 186.188 C 160.972 185.466, 160.936 184.603, 160.604 184.271 C 160.272 183.939, 160.036 184.529, 160.079 185.583 M 96.013 186.971 C 94.844 187.710, 95.004 187.875, 96.763 187.743 C 97.993 187.650, 99 187.220, 99 186.787 C 99 186.354, 98.662 186.007, 98.250 186.015 C 97.838 186.024, 96.831 186.454, 96.013 186.971 M 5.613 188.183 C 5.902 188.650, 6.557 188.774, 7.069 188.457 C 7.581 188.141, 8 187.759, 8 187.608 C 8 187.457, 7.345 187.333, 6.544 187.333 C 5.743 187.333, 5.324 187.716, 5.613 188.183 M 78.500 188 C 78.160 188.550, 78.359 189, 78.941 189 C 79.523 189, 80 188.550, 80 188 C 80 187.450, 79.802 187, 79.559 187 C 79.316 187, 78.840 187.450, 78.500 188 M 193.636 188.506 C 193.321 189.328, 192.422 190, 191.640 190 C 190.857 190, 189.885 191.238, 189.478 192.750 C 189.072 194.262, 188.646 196.738, 188.531 198.250 C 188.416 199.762, 188.699 201, 189.161 201 C 189.622 201, 190.053 200.213, 190.118 199.250 C 190.184 198.287, 190.184 197.162, 190.118 196.750 C 190.053 196.338, 190.563 195.993, 191.250 195.985 C 192.083 195.974, 192 195.646, 191 195 C 189.843 194.252, 189.810 194.027, 190.857 194.015 C 191.614 194.007, 191.974 193.374, 191.670 192.583 C 191.371 191.803, 191.729 190.934, 192.465 190.652 C 193.202 190.369, 194.073 190.407, 194.402 190.736 C 194.731 191.064, 195 202.283, 195 215.667 L 195 240 209.634 240 C 217.958 240, 225.960 239.493, 228.193 238.824 C 230.352 238.177, 234.075 235.926, 236.466 233.821 C 239.321 231.308, 241.361 228.389, 242.407 225.319 C 243.582 221.869, 244 216.758, 244 205.822 L 244 191 219.393 191 C 198.170 191, 194.863 190.798, 195.349 189.532 C 195.659 188.725, 195.529 187.827, 195.061 187.538 C 194.593 187.248, 193.952 187.684, 193.636 188.506 M 200.500 189 C 200.840 189.550, 201.316 190, 201.559 190 C 201.802 190, 202 189.550, 202 189 C 202 188.450, 201.523 188, 200.941 188 C 200.359 188, 200.160 188.450, 200.500 189 M 65.597 190.609 C 65.281 191.431, 65.355 191.898, 65.761 191.647 C 66.168 191.396, 66.500 192.441, 66.500 193.968 C 66.500 195.772, 66.064 196.578, 65.256 196.268 C 64.571 196.005, 64.241 195.419, 64.522 194.964 C 64.803 194.510, 64.545 193.837, 63.948 193.468 C 63.352 193.099, 63.103 192.175, 63.395 191.413 C 63.818 190.310, 63.559 190.259, 62.115 191.160 C 60.842 191.955, 60.334 193.434, 60.402 196.142 C 60.456 198.261, 60.950 199.834, 61.500 199.639 C 62.050 199.444, 62.443 198.581, 62.374 197.721 C 62.299 196.783, 62.796 196.368, 63.619 196.684 C 64.372 196.973, 64.692 197.689, 64.330 198.275 C 63.928 198.925, 64.270 199.110, 65.209 198.750 C 66.557 198.233, 66.768 200.690, 66.929 218.768 C 67.031 230.102, 67.340 239.740, 67.616 240.187 C 67.892 240.634, 67.566 241, 66.892 241 C 66.218 241, 65.956 241.289, 66.309 241.643 C 66.663 241.996, 67.608 241.740, 68.410 241.075 C 69.459 240.204, 74.796 239.943, 87.434 240.146 C 97.095 240.301, 105 240.706, 105 241.046 C 105 241.387, 106.013 241.553, 107.250 241.416 C 108.487 241.279, 109.500 241.101, 109.500 241.020 C 109.500 240.939, 111.975 240.789, 115 240.687 L 120.500 240.500 120.773 227.500 L 121.047 214.500 109.267 202.758 L 97.486 191.016 85.993 190.435 C 79.672 190.116, 73.914 189.667, 73.198 189.439 C 72.482 189.210, 72.171 189.468, 72.507 190.011 C 72.843 190.555, 72.671 191, 72.124 191 C 71.577 191, 70.014 190.576, 68.650 190.057 C 66.747 189.333, 66.037 189.462, 65.597 190.609 M 172.500 190 C 172.160 190.550, 172.359 191, 172.941 191 C 173.523 191, 174 190.550, 174 190 C 174 189.450, 173.802 189, 173.559 189 C 173.316 189, 172.840 189.450, 172.500 190 M 183.500 190 C 183.840 190.550, 184.316 191, 184.559 191 C 184.802 191, 185 190.550, 185 190 C 185 189.450, 184.523 189, 183.941 189 C 183.359 189, 183.160 189.450, 183.500 190 M 100.033 190.595 C 100.015 191.197, 100.855 192.464, 101.901 193.410 C 103.230 194.613, 104.012 194.790, 104.501 193.999 C 104.886 193.376, 104.930 192.597, 104.600 192.267 C 104.270 191.937, 104 192.242, 104 192.944 C 104 193.647, 103.115 193.159, 102.033 191.861 C 100.952 190.562, 100.052 189.993, 100.033 190.595 M 135.250 190.807 L 131 191.115 131 196.204 L 131 201.292 133.452 198.646 C 134.801 197.191, 136.183 196, 136.524 196 C 136.864 196, 137.819 195.324, 138.644 194.498 C 139.470 193.673, 140.001 192.435, 139.823 191.748 C 139.612 190.933, 138.026 190.607, 135.250 190.807 M 8 205.851 C 8 214.295, 8.491 222.168, 9.138 224.101 C 9.764 225.970, 11.338 228.931, 12.636 230.680 C 13.934 232.429, 16.381 234.847, 18.074 236.053 C 19.768 237.259, 22.806 238.649, 24.826 239.142 C 26.847 239.636, 31.313 240.047, 34.750 240.057 C 38.188 240.066, 41 240.507, 41 241.037 C 41 241.567, 41.477 242, 42.059 242 C 42.641 242, 42.812 241.505, 42.438 240.900 C 41.961 240.127, 42.389 240.138, 43.879 240.935 C 45.046 241.560, 46 241.690, 46 241.225 C 46 240.760, 47.687 240.355, 49.750 240.325 C 51.813 240.295, 54.288 240.209, 55.250 240.135 C 56.865 240.010, 57 238.115, 57 215.500 L 57 191 32.500 191 L 8 191 8 205.851 M 112.434 192.750 C 112.575 193.713, 112.905 194.275, 113.167 194 C 113.429 193.725, 114.426 194.283, 115.383 195.240 C 116.340 196.197, 117.184 197.788, 117.258 198.776 C 117.334 199.789, 118.179 200.571, 119.197 200.571 C 120.683 200.571, 121 199.731, 121 195.786 L 121 191 116.588 191 C 112.956 191, 112.222 191.309, 112.434 192.750 M 62 194 C 62 194.550, 62.477 195, 63.059 195 C 63.641 195, 63.840 194.550, 63.500 194 C 63.160 193.450, 62.684 193, 62.441 193 C 62.198 193, 62 193.450, 62 194 M 138 196.964 C 138 197.494, 136.391 199.021, 134.424 200.358 C 132.327 201.783, 131.293 203.063, 131.924 203.453 C 132.516 203.819, 133 203.656, 133 203.090 C 133 202.525, 133.608 202.296, 134.352 202.582 C 135.104 202.870, 136.468 201.934, 137.427 200.472 C 138.443 198.921, 139.734 198.067, 140.574 198.390 C 141.358 198.691, 142 198.549, 142 198.076 C 142 197.602, 141.288 196.941, 140.418 196.607 C 139.548 196.273, 138.648 196, 138.418 196 C 138.188 196, 138 196.434, 138 196.964 M 62 201.393 C 62 201.609, 62.675 202.045, 63.500 202.362 C 64.325 202.678, 65 202.501, 65 201.969 C 65 201.436, 64.325 201, 63.500 201 C 62.675 201, 62 201.177, 62 201.393 M 60.733 203.124 C 61.412 203.808, 62.219 204.115, 62.526 203.807 C 62.834 203.499, 62.279 202.940, 61.293 202.564 C 59.868 202.022, 59.753 202.136, 60.733 203.124 M 137.500 204 C 135.870 204.701, 135.812 204.872, 137.191 204.930 C 138.121 204.968, 139.160 204.550, 139.500 204 C 139.840 203.450, 139.979 203.032, 139.809 203.070 C 139.639 203.109, 138.600 203.527, 137.500 204 M 188.500 204 C 188.840 204.550, 189.316 205, 189.559 205 C 189.802 205, 190 204.550, 190 204 C 190 203.450, 189.523 203, 188.941 203 C 188.359 203, 188.160 203.450, 188.500 204 M 120.158 206 C 120.158 207.375, 120.385 207.938, 120.662 207.250 C 120.940 206.563, 120.940 205.438, 120.662 204.750 C 120.385 204.063, 120.158 204.625, 120.158 206 M 117.730 209.075 C 118.011 210.151, 118.590 211.247, 119.016 211.510 C 119.442 211.773, 120.018 211.396, 120.295 210.672 C 120.573 209.949, 119.995 208.853, 119.009 208.238 C 117.484 207.285, 117.294 207.409, 117.730 209.075 M 124 212.274 C 124 213.159, 124.410 214.136, 124.912 214.446 C 125.414 214.756, 125.727 214.345, 125.608 213.534 C 125.489 212.722, 125.078 211.745, 124.696 211.362 C 124.313 210.980, 124 211.390, 124 212.274 M 125.813 216.683 C 126.534 216.972, 127.397 216.936, 127.729 216.604 C 128.061 216.272, 127.471 216.036, 126.417 216.079 C 125.252 216.127, 125.015 216.364, 125.813 216.683 M 58.079 234.583 C 58.127 235.748, 58.364 235.985, 58.683 235.188 C 58.972 234.466, 58.936 233.603, 58.604 233.271 C 58.272 232.939, 58.036 233.529, 58.079 234.583 M 234.569 236.926 C 232.957 237.839, 231.466 239.242, 231.256 240.043 C 230.989 241.063, 231.301 240.975, 232.297 239.750 C 233.080 238.787, 234.057 238, 234.467 238 C 234.878 238, 234.949 238.690, 234.626 239.532 C 234.148 240.778, 234.496 240.732, 236.488 239.282 C 237.835 238.302, 238.951 237.189, 238.969 236.809 C 238.986 236.429, 238.662 235.926, 238.250 235.692 C 237.838 235.458, 236.181 236.013, 234.569 236.926" stroke="none" fill="#2c4967" fill-rule="evenodd" data-index="3"></path><path d="M 116.500 49 L 112.594 53 116.797 53 L 121 53 121 49 C 121 46.800, 120.866 45, 120.703 45 C 120.540 45, 118.648 46.800, 116.500 49 M 132 49.500 C 132 52.869, 132.139 53, 135.696 53 L 139.392 53 136 49.500 C 134.134 47.575, 132.471 46, 132.304 46 C 132.137 46, 132 47.575, 132 49.500 M 68 72.500 C 68 77.175, 68.143 81, 68.318 81 C 68.493 81, 72.318 77.318, 76.818 72.818 C 81.318 68.318, 85 64.493, 85 64.318 C 85 64.143, 81.175 64, 76.500 64 L 68 64 68 72.500 M 110.500 65.870 C 107.200 66.820, 101.736 69.074, 98.358 70.880 C 94.979 72.686, 89.762 76.350, 86.764 79.023 C 83.765 81.696, 79.399 86.819, 77.060 90.407 C 74.722 93.996, 71.727 100.340, 70.404 104.504 C 69.082 108.669, 68 113.184, 68 114.538 L 68 117 94.500 117 L 121 117 121 90.500 L 121 64 118.750 64.071 C 117.513 64.110, 113.800 64.920, 110.500 65.870 M 132 90.500 L 132 117 158 117 L 184 117 184 114.552 C 184 113.205, 182.885 108.593, 181.522 104.302 C 180.160 100.011, 177.207 93.698, 174.960 90.274 C 172.713 86.850, 168.362 81.809, 165.290 79.071 C 162.218 76.333, 156.733 72.535, 153.102 70.631 C 149.471 68.728, 143.735 66.457, 140.356 65.585 C 136.976 64.713, 133.714 64, 133.106 64 C 132.326 64, 132 71.812, 132 90.500 M 175.114 72.983 C 180.276 77.923, 184.500 81.973, 184.500 81.982 C 184.500 81.990, 184.500 77.948, 184.500 72.998 L 184.500 63.999 175.114 64 L 165.727 64 175.114 72.983 M 52.547 112.938 L 48.594 117 52.328 117 C 54.626 117, 56.272 116.455, 56.606 115.584 C 56.905 114.806, 57.003 112.978, 56.825 111.523 L 56.500 108.877 52.547 112.938 M 196 113.500 C 196 116.869, 196.139 117, 199.696 117 L 203.392 117 200 113.500 C 198.134 111.575, 196.471 110, 196.304 110 C 196.137 110, 196 111.575, 196 113.500 M 52.300 131.500 C 54.225 133.425, 56.070 135, 56.400 135 C 56.730 135, 57 133.425, 57 131.500 C 57 128.069, 56.919 128, 52.900 128 L 48.800 128 52.300 131.500 M 68.401 132.108 C 68.762 134.367, 69.940 138.724, 71.017 141.790 C 72.095 144.856, 74.444 149.801, 76.238 152.780 C 78.032 155.758, 82.432 160.964, 86.016 164.348 C 89.600 167.731, 95.316 171.977, 98.718 173.783 C 102.120 175.589, 108.188 177.903, 112.202 178.927 C 116.216 179.951, 119.838 180.585, 120.250 180.335 C 120.662 180.086, 121 168.209, 121 153.941 L 121 128 94.372 128 L 67.744 128 68.401 132.108 M 132 154.411 L 132 180.823 138.250 179.383 C 141.688 178.591, 147.661 176.451, 151.524 174.628 C 155.661 172.676, 161.177 168.886, 164.945 165.407 C 168.464 162.158, 173.038 156.886, 175.110 153.690 C 177.182 150.495, 179.783 145.095, 180.890 141.690 C 181.997 138.286, 183.200 133.813, 183.563 131.750 L 184.223 128 158.111 128 L 132 128 132 154.411 M 195.786 131.006 C 195.543 132.659, 195.551 134.218, 195.804 134.471 C 196.056 134.723, 197.554 133.548, 199.132 131.859 C 200.709 130.170, 202 128.611, 202 128.394 C 202 128.177, 200.701 128, 199.113 128 C 196.670 128, 196.159 128.461, 195.786 131.006 M 68 172 L 68 181 77.229 181 L 86.458 181 77.500 172 C 72.573 167.050, 68.420 163, 68.271 163 C 68.122 163, 68 167.050, 68 172 M 174.500 172 L 165.542 181 174.771 181 L 184 181 184.011 175.750 C 184.017 172.863, 184.301 168.813, 184.642 166.750 C 184.983 164.688, 184.856 163, 184.360 163 C 183.864 163, 179.427 167.050, 174.500 172 M 116.570 195.500 C 118.671 197.425, 120.528 199, 120.695 199 C 120.863 199, 121 197.425, 121 195.500 C 121 192.066, 120.923 192, 116.874 192 L 112.749 192 116.570 195.500 M 132 195.723 L 132 199.446 135 196.161 C 136.650 194.355, 138 192.679, 138 192.438 C 138 192.197, 136.650 192, 135 192 C 132.204 192, 132 192.253, 132 195.723" stroke="none" fill="#fdb143" fill-rule="evenodd" data-index="4"></path><path d="M 193.079 1.583 C 193.127 2.748, 193.364 2.985, 193.683 2.188 C 193.972 1.466, 193.936 0.603, 193.604 0.271 C 193.272 -0.061, 193.036 0.529, 193.079 1.583 M 238.036 2.776 C 236.681 4.055, 236.259 4.838, 237.099 4.515 C 237.939 4.193, 239.332 4.733, 240.195 5.715 C 241.058 6.697, 242.090 8.569, 242.489 9.875 C 242.986 11.504, 242.866 12.035, 242.107 11.566 C 241.498 11.190, 241 10.317, 241 9.627 C 241 8.936, 239.157 7.388, 236.905 6.186 C 234.654 4.983, 232.516 4.014, 232.155 4.030 C 231.795 4.047, 232.269 4.509, 233.208 5.057 C 234.224 5.649, 234.693 6.752, 234.364 7.776 C 233.945 9.082, 234.044 9.174, 234.772 8.158 C 235.562 7.054, 236.099 7.045, 237.802 8.108 C 238.940 8.819, 240.078 10.189, 240.330 11.152 C 240.582 12.116, 240.273 13.120, 239.644 13.384 C 239.015 13.649, 239.963 13.614, 241.750 13.307 C 244.456 12.843, 245.003 13.064, 245.015 14.625 C 245.027 16.115, 245.214 16.210, 245.925 15.088 C 246.505 14.171, 246.321 13.179, 245.400 12.257 C 244.620 11.477, 244.237 10.425, 244.550 9.919 C 244.862 9.414, 244.641 9, 244.059 9 C 243.477 9, 243 8.480, 243 7.845 C 243 7.202, 243.963 7.534, 245.172 8.595 C 246.366 9.643, 247.039 9.976, 246.666 9.335 C 246.293 8.695, 246.402 8.020, 246.909 7.835 C 247.416 7.651, 246.182 5.914, 244.166 3.975 L 240.500 0.450 238.036 2.776 M 239.575 2.879 C 239.265 3.380, 239.684 4.048, 240.506 4.364 C 241.328 4.679, 242 4.528, 242 4.028 C 242 3.527, 241.581 2.859, 241.069 2.543 C 240.557 2.226, 239.885 2.378, 239.575 2.879 M 35.750 4.743 C 39.737 4.932, 46.263 4.932, 50.250 4.743 C 54.237 4.553, 50.975 4.397, 43 4.397 C 35.025 4.397, 31.762 4.553, 35.750 4.743 M 173.813 4.683 C 174.534 4.972, 175.397 4.936, 175.729 4.604 C 176.061 4.272, 175.471 4.036, 174.417 4.079 C 173.252 4.127, 173.015 4.364, 173.813 4.683 M 178.269 4.693 C 179.242 4.947, 180.592 4.930, 181.269 4.656 C 181.946 4.382, 181.150 4.175, 179.500 4.195 C 177.850 4.215, 177.296 4.439, 178.269 4.693 M 202.250 4.742 C 205.963 4.934, 212.037 4.934, 215.750 4.742 C 219.463 4.549, 216.425 4.392, 209 4.392 C 201.575 4.392, 198.537 4.549, 202.250 4.742 M 131.389 17.500 C 131.390 24.650, 131.550 27.444, 131.742 23.708 C 131.935 19.973, 131.934 14.123, 131.739 10.708 C 131.545 7.294, 131.387 10.350, 131.389 17.500 M 184.132 29.083 C 184.204 42.513, 184.542 51.964, 184.882 50.087 C 185.436 47.027, 185.642 46.847, 186.872 48.337 C 187.627 49.252, 188.700 50, 189.257 50 C 189.814 50, 189.081 49.065, 187.627 47.921 L 184.984 45.843 185.046 25.808 C 185.080 14.789, 184.858 5.525, 184.554 5.220 C 184.249 4.916, 184.059 15.654, 184.132 29.083 M 189 5.941 C 189 6.459, 189.450 7.160, 190 7.500 C 190.550 7.840, 191 7.416, 191 6.559 C 191 5.702, 190.550 5, 190 5 C 189.450 5, 189 5.423, 189 5.941 M 8 11 C 8 11.550, 8.450 12, 9 12 C 9.550 12, 10 11.550, 10 11 C 10 10.450, 9.550 10, 9 10 C 8.450 10, 8 10.450, 8 11 M 2.607 13.173 C 2.899 13.646, 3.557 13.774, 4.069 13.457 C 4.581 13.141, 5 13.269, 5 13.741 C 5 14.213, 4.485 15.115, 3.856 15.744 C 2.997 16.603, 3.247 16.748, 4.856 16.327 C 6.035 16.019, 7 15.369, 7 14.883 C 7 14.398, 7.005 13.680, 7.011 13.289 C 7.018 12.897, 5.909 12.518, 4.549 12.445 C 3.188 12.372, 2.314 12.700, 2.607 13.173 M 241.638 15.500 C 241.308 16.360, 241.618 17, 242.365 17 C 243.081 17, 243.667 16.325, 243.667 15.500 C 243.667 14.675, 243.340 14, 242.940 14 C 242.541 14, 241.955 14.675, 241.638 15.500 M 250.761 16.530 C 251.021 17.889, 251.589 19, 252.023 19 C 252.457 19, 252.576 18.093, 252.286 16.984 C 251.996 15.876, 251.428 14.764, 251.024 14.515 C 250.620 14.265, 250.501 15.172, 250.761 16.530 M 0.333 16.456 C 0.333 17.257, 0.716 17.676, 1.183 17.387 C 1.650 17.098, 1.774 16.443, 1.457 15.931 C 1.141 15.419, 0.759 15, 0.608 15 C 0.457 15, 0.333 15.655, 0.333 16.456 M 247.469 16.050 C 247.101 16.646, 246.970 17.304, 247.179 17.512 C 247.387 17.721, 248.155 17.522, 248.886 17.071 C 249.745 16.539, 249.848 16.024, 249.176 15.609 C 248.605 15.256, 247.837 15.455, 247.469 16.050 M 243 23.559 C 243 24.416, 243.457 24.835, 244.016 24.490 C 244.575 24.144, 244.774 23.443, 244.457 22.931 C 244.141 22.419, 243.684 22, 243.441 22 C 243.198 22, 243 22.702, 243 23.559 M 8.079 24.583 C 8.127 25.748, 8.364 25.985, 8.683 25.188 C 8.972 24.466, 8.936 23.603, 8.604 23.271 C 8.272 22.939, 8.036 23.529, 8.079 24.583 M 130.710 35 C 130.998 36.100, 131.872 37, 132.652 37 C 133.760 37, 133.837 36.563, 133 35 C 132.411 33.900, 131.538 33, 131.058 33 C 130.579 33, 130.423 33.900, 130.710 35 M 144 44.806 C 144 45.328, 144.675 46.315, 145.500 47 C 146.325 47.685, 147 47.933, 147 47.551 C 147 47.169, 146.325 46.182, 145.500 45.357 C 144.675 44.532, 144 44.284, 144 44.806 M 111.695 47.943 C 111.991 49.074, 112.631 50, 113.117 50 C 113.602 50, 114 49.605, 114 49.122 C 114 48.640, 113.360 47.714, 112.579 47.065 C 111.412 46.097, 111.254 46.255, 111.695 47.943 M 116 48 C 115.099 48.582, 114.975 48.975, 115.691 48.985 C 116.346 48.993, 117.160 48.550, 117.500 48 C 117.840 47.450, 117.979 47.007, 117.809 47.015 C 117.639 47.024, 116.825 47.467, 116 48 M 134 47.378 C 134 47.585, 134.787 48.373, 135.750 49.128 C 137.336 50.371, 137.371 50.336, 136.128 48.750 C 135.373 47.788, 134.585 47, 134.378 47 C 134.170 47, 134 47.170, 134 47.378 M 139 49.035 C 139 49.501, 139.489 50.184, 140.087 50.554 C 140.685 50.923, 141.615 50.785, 142.153 50.247 C 142.792 49.608, 142.414 49.080, 141.066 48.728 C 139.930 48.430, 139 48.569, 139 49.035 M 148 49.409 C 148 49.599, 148.675 50.315, 149.500 51 C 150.365 51.718, 151 51.815, 151 51.229 C 151 50.671, 150.325 49.955, 149.500 49.638 C 148.675 49.322, 148 49.219, 148 49.409 M 111 51.941 C 111 52.459, 111.445 53.157, 111.989 53.493 C 112.555 53.843, 112.723 53.442, 112.382 52.552 C 112.054 51.698, 111.609 51, 111.393 51 C 111.177 51, 111 51.423, 111 51.941 M 137.500 53 C 135.592 53.820, 135.603 53.863, 137.750 53.930 C 138.988 53.968, 140 53.550, 140 53 C 140 52.450, 139.887 52.032, 139.750 52.070 C 139.613 52.109, 138.600 52.527, 137.500 53 M 144.813 52.683 C 145.534 52.972, 146.397 52.936, 146.729 52.604 C 147.061 52.272, 146.471 52.036, 145.417 52.079 C 144.252 52.127, 144.015 52.364, 144.813 52.683 M 189.813 52.683 C 190.534 52.972, 191.397 52.936, 191.729 52.604 C 192.061 52.272, 191.471 52.036, 190.417 52.079 C 189.252 52.127, 189.015 52.364, 189.813 52.683 M 87.613 55.183 C 87.902 55.650, 88.557 55.774, 89.069 55.457 C 89.581 55.141, 90 54.759, 90 54.608 C 90 54.457, 89.345 54.333, 88.544 54.333 C 87.743 54.333, 87.324 54.716, 87.613 55.183 M 187.459 55.067 C 187.096 55.653, 187.014 56.348, 187.276 56.610 C 187.538 56.872, 188.019 56.392, 188.345 55.543 C 188.671 54.694, 188.753 54, 188.528 54 C 188.302 54, 187.821 54.480, 187.459 55.067 M 75.270 56.250 C 75.511 56.938, 76.448 57.368, 77.354 57.206 C 78.259 57.045, 79 57.457, 79 58.123 C 79 58.789, 79.289 59.044, 79.643 58.691 C 79.996 58.337, 79.716 57.362, 79.020 56.524 C 78.324 55.686, 77.098 55, 76.294 55 C 75.491 55, 75.030 55.563, 75.270 56.250 M 10.376 57.538 C 10.712 58.413, 10.327 59.321, 9.483 59.645 C 8.667 59.958, 8 60.671, 8 61.229 C 8 61.828, 8.597 61.749, 9.456 61.036 C 10.257 60.372, 11.317 60.078, 11.812 60.384 C 12.306 60.689, 12.499 59.828, 12.239 58.470 C 11.979 57.111, 11.321 56, 10.776 56 C 10.232 56, 10.052 56.692, 10.376 57.538 M 14.380 57.452 C 14.074 58.251, 14.114 59.376, 14.470 59.952 C 14.827 60.528, 15.879 60.948, 16.809 60.884 C 18.291 60.782, 18.278 60.710, 16.708 60.303 C 15.465 59.980, 15.103 59.251, 15.526 57.919 C 15.861 56.863, 15.865 56, 15.536 56 C 15.207 56, 14.686 56.653, 14.380 57.452 M 67.507 56.989 C 67.157 57.555, 67.558 57.723, 68.448 57.382 C 69.302 57.054, 70 56.609, 70 56.393 C 70 56.177, 69.577 56, 69.059 56 C 68.541 56, 67.843 56.445, 67.507 56.989 M 120.158 58 C 120.158 59.375, 120.385 59.938, 120.662 59.250 C 120.940 58.563, 120.940 57.438, 120.662 56.750 C 120.385 56.063, 120.158 56.625, 120.158 58 M 55 59.059 C 55 60.191, 55.450 60.840, 56 60.500 C 56.550 60.160, 57 59.234, 57 58.441 C 57 57.648, 56.550 57, 56 57 C 55.450 57, 55 57.927, 55 59.059 M 183.211 59.603 C 182.148 60.754, 182.202 61, 183.520 61 C 184.399 61, 184.840 61.450, 184.500 62 C 184.155 62.558, 184.903 62.993, 186.191 62.985 C 187.496 62.976, 188.028 62.650, 187.415 62.235 C 186.818 61.831, 185.918 60.759, 185.415 59.853 C 184.635 58.450, 184.310 58.413, 183.211 59.603 M 157 60.229 C 157 60.836, 157.301 61.032, 157.669 60.664 C 158.037 60.297, 159.117 60.701, 160.070 61.563 C 161.248 62.629, 162.017 62.782, 162.475 62.040 C 162.850 61.434, 162.562 61.072, 161.824 61.225 C 161.096 61.376, 160.581 61.031, 160.681 60.458 C 160.780 59.884, 159.993 59.350, 158.931 59.270 C 157.869 59.190, 157 59.621, 157 60.229 M 84 60.656 C 84 61.225, 84.900 62.505, 86 63.500 C 87.100 64.495, 88 64.996, 88 64.613 C 88 64.230, 87.100 62.950, 86 61.770 C 84.900 60.589, 84 60.088, 84 60.656 M 66.500 63 C 66.840 63.550, 67.316 64, 67.559 64 C 67.802 64, 68 63.550, 68 63 C 68 62.450, 67.523 62, 66.941 62 C 66.359 62, 66.160 62.450, 66.500 63 M 151.651 63.468 C 151.341 64.275, 151.518 65.202, 152.044 65.527 C 152.570 65.852, 153 65.191, 153 64.059 C 153 62.927, 152.823 62, 152.607 62 C 152.391 62, 151.960 62.661, 151.651 63.468 M 60.500 65 C 60.840 65.550, 61.541 66, 62.059 66 C 62.577 66, 63 65.550, 63 65 C 63 64.450, 62.298 64, 61.441 64 C 60.584 64, 60.160 64.450, 60.500 65 M 161.608 65.685 C 161.762 66.337, 161.350 67.089, 160.694 67.356 C 160.037 67.624, 160.625 67.871, 162 67.906 C 163.375 67.941, 165.175 67.533, 166 67 C 167.175 66.241, 166.922 66.027, 164.833 66.015 C 163.367 66.007, 161.978 65.662, 161.747 65.250 C 161.517 64.838, 161.454 65.033, 161.608 65.685 M 189.813 64.683 C 190.534 64.972, 191.397 64.936, 191.729 64.604 C 192.061 64.272, 191.471 64.036, 190.417 64.079 C 189.252 64.127, 189.015 64.364, 189.813 64.683 M 155.564 66.707 C 155.022 68.132, 155.136 68.247, 156.124 67.267 C 156.808 66.588, 157.115 65.781, 156.807 65.474 C 156.499 65.166, 155.940 65.721, 155.564 66.707 M 150.750 67.662 C 151.438 67.940, 152.563 67.940, 153.250 67.662 C 153.938 67.385, 153.375 67.158, 152 67.158 C 150.625 67.158, 150.063 67.385, 150.750 67.662 M 164.345 69.543 C 164.019 70.392, 164.034 71.367, 164.376 71.710 C 164.719 72.053, 165 71.808, 165 71.167 C 165 70.525, 165.702 70, 166.559 70 C 167.495 70, 167.829 70.468, 167.395 71.170 C 166.900 71.971, 167.231 72.125, 168.447 71.659 C 169.678 71.186, 170.069 71.378, 169.721 72.284 C 169.436 73.027, 169.963 73.647, 170.943 73.721 C 171.891 73.792, 172.667 73.209, 172.667 72.425 C 172.667 71.641, 172.053 71, 171.302 71 C 170.551 71, 169.678 70.325, 169.362 69.500 C 169.045 68.675, 167.920 68, 166.862 68 C 165.803 68, 164.671 68.694, 164.345 69.543 M 83.437 81.250 L 80.500 84.500 83.750 81.563 C 85.537 79.948, 87 78.485, 87 78.313 C 87 78.141, 86.859 78, 86.687 78 C 86.515 78, 85.052 79.463, 83.437 81.250 M 167.427 80.743 C 169.037 82.523, 170.575 83.759, 170.844 83.490 C 171.113 83.220, 171.146 82.888, 170.917 82.750 C 170.688 82.612, 169.150 81.377, 167.500 80.004 L 164.500 77.507 167.427 80.743 M 184.500 82 C 184.160 82.550, 184.359 83, 184.941 83 C 185.523 83, 186 82.550, 186 82 C 186 81.450, 185.802 81, 185.559 81 C 185.316 81, 184.840 81.450, 184.500 82 M 69.692 83.359 C 69.388 84.153, 69.670 84.725, 70.319 84.629 C 70.969 84.534, 71.646 84.027, 71.825 83.503 C 72.004 82.979, 71.722 82.407, 71.198 82.233 C 70.675 82.058, 69.997 82.565, 69.692 83.359 M 67 89.941 C 67 91.073, 67.177 92, 67.393 92 C 67.609 92, 68.040 91.339, 68.349 90.532 C 68.659 89.725, 68.482 88.798, 67.956 88.473 C 67.430 88.148, 67 88.809, 67 89.941 M 195.116 100.781 C 195.183 102.940, 195.438 103.661, 195.724 102.500 C 195.994 101.400, 196.628 99.990, 197.133 99.367 C 197.729 98.631, 197.516 98.028, 196.526 97.648 C 195.316 97.184, 195.024 97.832, 195.116 100.781 M 191 100.882 C 191 101.432, 191.450 102.160, 192 102.500 C 192.550 102.840, 193 102.668, 193 102.118 C 193 101.568, 192.550 100.840, 192 100.500 C 191.450 100.160, 191 100.332, 191 100.882 M 205.500 108 C 206.495 109.100, 207.535 110, 207.810 110 C 208.085 110, 207.495 109.100, 206.500 108 C 205.505 106.900, 204.465 106, 204.190 106 C 203.915 106, 204.505 106.900, 205.500 108 M 183 109 C 183 109.550, 183.477 110, 184.059 110 C 184.641 110, 184.840 109.550, 184.500 109 C 184.160 108.450, 183.684 108, 183.441 108 C 183.198 108, 183 108.450, 183 109 M 52 112 C 51.099 112.582, 50.975 112.975, 51.691 112.985 C 52.346 112.993, 53.160 112.550, 53.500 112 C 53.840 111.450, 53.979 111.007, 53.809 111.015 C 53.639 111.024, 52.825 111.467, 52 112 M 198 111.378 C 198 111.585, 198.787 112.373, 199.750 113.128 C 201.336 114.371, 201.371 114.336, 200.128 112.750 C 199.373 111.787, 198.585 111, 198.378 111 C 198.170 111, 198 111.170, 198 111.378 M 206.507 111.989 C 206.157 112.555, 206.558 112.723, 207.448 112.382 C 208.302 112.054, 209 111.609, 209 111.393 C 209 111.177, 208.577 111, 208.059 111 C 207.541 111, 206.843 111.445, 206.507 111.989 M 209.096 114.250 C 208.348 116.253, 208.643 116.584, 211.779 117.266 C 213.716 117.687, 215.534 117.799, 215.818 117.516 C 216.101 117.232, 215.583 117, 214.667 117 C 213.750 117, 213 116.523, 213 115.941 C 213 115.359, 213.520 115.203, 214.155 115.595 C 214.899 116.055, 215.036 115.868, 214.542 115.067 C 213.989 114.173, 213.470 114.130, 212.687 114.913 C 212.089 115.511, 211.188 116, 210.683 116 C 210.179 116, 210.002 115.100, 210.290 114 C 210.577 112.900, 210.615 112, 210.374 112 C 210.133 112, 209.558 113.013, 209.096 114.250 M 37.667 115.667 C 37.300 116.033, 37 116.798, 37 117.367 C 37 117.993, 37.466 117.934, 38.183 117.217 C 38.834 116.566, 39.134 115.801, 38.850 115.517 C 38.566 115.233, 38.033 115.300, 37.667 115.667 M 201.500 117 C 199.592 117.820, 199.603 117.863, 201.750 117.930 C 202.988 117.968, 204 117.550, 204 117 C 204 116.450, 203.887 116.032, 203.750 116.070 C 203.613 116.109, 202.600 116.527, 201.500 117 M 11.250 119.718 C 10.563 119.965, 10 120.551, 10 121.021 C 10 121.491, 10.900 121.808, 12 121.725 C 13.100 121.642, 14 121.247, 14 120.846 C 14 120.446, 13.662 119.927, 13.250 119.694 C 12.838 119.461, 11.938 119.472, 11.250 119.718 M 38.325 120.658 C 38.687 121.020, 38.424 122.032, 37.741 122.908 C 36.643 124.317, 36.702 124.342, 38.250 123.128 C 39.212 122.373, 40 121.360, 40 120.878 C 40 120.395, 39.475 120, 38.833 120 C 38.192 120, 37.963 120.296, 38.325 120.658 M 52 121 C 52 121.550, 52.477 122, 53.059 122 C 53.641 122, 53.840 121.550, 53.500 121 C 53.160 120.450, 52.684 120, 52.441 120 C 52.198 120, 52 120.450, 52 121 M 56.158 122 C 56.158 123.375, 56.385 123.938, 56.662 123.250 C 56.940 122.563, 56.940 121.438, 56.662 120.750 C 56.385 120.063, 56.158 120.625, 56.158 122 M 9.250 123.731 C 8.563 123.970, 8 124.634, 8 125.206 C 8 125.895, 8.446 125.875, 9.324 125.146 C 10.290 124.344, 10.965 124.365, 11.824 125.224 C 12.624 126.024, 13 126.051, 13 125.307 C 13 124.706, 12.438 124.007, 11.750 123.754 C 11.063 123.501, 9.938 123.491, 9.250 123.731 M 121.446 124.087 C 121.077 124.685, 121.179 125.579, 121.673 126.073 C 122.204 126.604, 122.571 126.160, 122.571 124.986 C 122.571 123.894, 122.469 123, 122.345 123 C 122.220 123, 121.816 123.489, 121.446 124.087 M 184.697 125.393 C 184.288 126.434, 184.189 127.522, 184.476 127.810 C 184.764 128.098, 185.265 128.069, 185.588 127.745 C 185.912 127.421, 186.011 126.334, 185.809 125.328 C 185.459 123.588, 185.405 123.591, 184.697 125.393 M 211 125.500 C 211 126.367, 211.595 126.709, 212.500 126.362 C 213.325 126.045, 214 125.657, 214 125.500 C 214 125.343, 213.325 124.955, 212.500 124.638 C 211.595 124.291, 211 124.633, 211 125.500 M 57.733 126.124 C 58.412 126.808, 59.219 127.115, 59.526 126.807 C 59.834 126.499, 59.279 125.940, 58.293 125.564 C 56.868 125.022, 56.753 125.136, 57.733 126.124 M 66 127 C 66 127.550, 66.477 128, 67.059 128 C 67.641 128, 67.840 127.550, 67.500 127 C 67.160 126.450, 66.684 126, 66.441 126 C 66.198 126, 66 126.450, 66 127 M 199.109 132.250 C 196.693 134.863, 195.024 137, 195.398 137 C 195.773 137, 197.885 135.158, 200.092 132.906 C 202.299 130.655, 203.968 128.517, 203.802 128.156 C 203.636 127.795, 201.524 129.637, 199.109 132.250 M 37.500 129 C 37.840 129.550, 39.018 130, 40.118 130 C 41.218 130, 41.840 129.550, 41.500 129 C 41.160 128.450, 39.982 128, 38.882 128 C 37.782 128, 37.160 128.450, 37.500 129 M 48 129.465 C 48 129.720, 49.013 130.469, 50.250 131.129 C 52.290 132.216, 52.372 132.172, 51.128 130.664 C 50.373 129.749, 49.360 129, 48.878 129 C 48.395 129, 48 129.209, 48 129.465 M 53.609 134.423 C 53.909 135.205, 54.882 136.125, 55.771 136.466 C 57.099 136.975, 57.058 136.721, 55.539 135.043 C 54.522 133.919, 53.549 133, 53.376 133 C 53.204 133, 53.308 133.640, 53.609 134.423 M 199.131 136.342 C 198.519 137.080, 198.313 137.980, 198.675 138.342 C 199.037 138.704, 199.680 139, 200.105 139 C 200.529 139, 200.808 138.100, 200.725 137 C 200.642 135.900, 200.500 135, 200.410 135 C 200.319 135, 199.744 135.604, 199.131 136.342 M 56.158 144 C 56.158 145.375, 56.385 145.938, 56.662 145.250 C 56.940 144.563, 56.940 143.438, 56.662 142.750 C 56.385 142.063, 56.158 142.625, 56.158 144 M 61 145.941 C 61 146.459, 61.445 147.157, 61.989 147.493 C 62.555 147.843, 62.723 147.442, 62.382 146.552 C 62.054 145.698, 61.609 145, 61.393 145 C 61.177 145, 61 145.423, 61 145.941 M 72.138 151.333 C 71.311 152.330, 71.365 152.667, 72.349 152.667 C 73.074 152.667, 73.667 152.067, 73.667 151.333 C 73.667 150.600, 73.572 150, 73.456 150 C 73.340 150, 72.747 150.600, 72.138 151.333 M 76.257 157.237 C 76.125 158.996, 76.290 159.156, 77.029 157.987 C 77.546 157.169, 77.976 156.162, 77.985 155.750 C 77.993 155.338, 77.646 155, 77.213 155 C 76.780 155, 76.350 156.007, 76.257 157.237 M 77.995 160.222 C 76.936 162.404, 76.955 162.418, 78.445 160.559 C 79.974 158.650, 80 158.653, 80 160.726 C 80 161.885, 79.662 163.022, 79.250 163.253 C 78.838 163.483, 79.096 163.522, 79.824 163.339 C 80.553 163.156, 81.822 163.679, 82.646 164.503 C 83.469 165.326, 84.626 166, 85.217 166 C 85.808 166, 85.101 164.896, 83.646 163.548 C 82.191 162.199, 81 160.651, 81 160.107 C 81 159.563, 80.573 158.854, 80.050 158.531 C 79.528 158.208, 78.603 158.969, 77.995 160.222 M 78.306 172.346 C 85.050 179.047, 87.486 180.909, 88.354 180.024 C 89.180 179.183, 89.186 178.947, 88.376 179.179 C 87.757 179.355, 85.507 177.972, 83.376 176.104 C 81.244 174.237, 77.228 170.637, 74.451 168.104 C 71.675 165.572, 73.409 167.481, 78.306 172.346 M 87 168 C 87.825 168.533, 88.864 168.976, 89.309 168.985 C 89.754 168.993, 89.840 168.550, 89.500 168 C 89.160 167.450, 88.121 167.007, 87.191 167.015 C 85.734 167.029, 85.707 167.165, 87 168 M 165.750 168.662 C 166.438 168.940, 167.563 168.940, 168.250 168.662 C 168.938 168.385, 168.375 168.158, 167 168.158 C 165.625 168.158, 165.063 168.385, 165.750 168.662 M 162.441 171.468 C 161.374 172.276, 160.950 172.936, 161.500 172.936 C 162.050 172.936, 163.374 172.276, 164.441 171.468 C 165.509 170.661, 165.932 170, 165.382 170 C 164.832 170, 163.509 170.661, 162.441 171.468 M 87.100 172.705 C 87.829 173.917, 88.640 174.694, 88.903 174.431 C 89.166 174.168, 88.570 173.176, 87.579 172.226 C 85.857 170.577, 85.835 170.598, 87.100 172.705 M 154.603 176.833 C 154.320 177.292, 154.743 177.667, 155.544 177.667 C 156.345 177.667, 157 177.292, 157 176.833 C 157 176.375, 156.577 176, 156.059 176 C 155.541 176, 154.886 176.375, 154.603 176.833 M 151.500 179 C 151.840 179.550, 152.316 180, 152.559 180 C 152.802 180, 153 179.550, 153 179 C 153 178.450, 152.523 178, 151.941 178 C 151.359 178, 151.160 178.450, 151.500 179 M 155 180 C 155 180.550, 155.477 181, 156.059 181 C 156.641 181, 156.840 180.550, 156.500 180 C 156.160 179.450, 155.684 179, 155.441 179 C 155.198 179, 155 179.450, 155 180 M 165 179.941 C 165 180.459, 165.445 181.157, 165.989 181.493 C 166.555 181.843, 166.723 181.442, 166.382 180.552 C 166.054 179.698, 165.609 179, 165.393 179 C 165.177 179, 165 179.423, 165 179.941 M 189.500 180 C 187.592 180.820, 187.603 180.863, 189.750 180.930 C 190.988 180.968, 192 180.550, 192 180 C 192 179.450, 191.887 179.032, 191.750 179.070 C 191.613 179.109, 190.600 179.527, 189.500 180 M 185.750 183.080 C 184.787 183.641, 184 184.977, 184 186.050 C 184 187.149, 183.320 188, 182.441 188 C 181.556 188, 181.178 188.478, 181.566 189.107 C 182.038 189.871, 181.514 189.977, 179.875 189.450 C 178.569 189.030, 176.825 188.697, 176 188.710 C 175.175 188.723, 173.693 188.032, 172.707 187.173 C 171.069 185.747, 170.971 185.760, 171.568 187.317 C 172.078 188.647, 171.831 188.872, 170.447 188.341 C 169.128 187.835, 168.884 188.004, 169.500 189 C 170.102 189.974, 169.882 190.169, 168.696 189.714 C 167.798 189.369, 166.840 189.449, 166.567 189.892 C 166.293 190.334, 164.366 190.410, 162.285 190.059 C 159.294 189.556, 158.546 189.010, 158.721 187.461 C 158.842 186.382, 158.701 186.037, 158.406 186.694 C 158.112 187.350, 157.112 187.645, 156.185 187.349 C 155.058 186.990, 154.897 187.100, 155.697 187.682 C 156.485 188.255, 156.576 189.057, 155.963 190.026 C 155.450 190.837, 155.024 191.216, 155.015 190.869 C 155.007 190.522, 150.162 195.163, 144.250 201.183 C 138.338 207.202, 133.290 212.436, 133.033 212.814 C 132.776 213.191, 137.508 208.662, 143.549 202.750 L 154.533 192 169.266 192 L 184 192 184 215.500 L 184 239 163.833 239 C 152.742 239, 143.890 239.224, 144.164 239.497 C 144.437 239.771, 153.336 240.037, 163.938 240.090 C 174.541 240.142, 183.607 239.793, 184.085 239.315 C 184.564 238.836, 184.982 230.357, 185.016 220.473 C 185.049 210.588, 185.336 200.137, 185.653 197.250 C 186.039 193.745, 186.687 192, 187.604 192 C 188.447 192, 188.900 191.062, 188.777 189.572 C 188.666 188.237, 188.191 187.382, 187.720 187.673 C 187.249 187.964, 187.120 188.944, 187.434 189.851 C 187.855 191.067, 187.611 190.990, 186.502 189.559 C 185.676 188.491, 185 186.756, 185 185.702 C 185 184.410, 185.488 183.973, 186.500 184.362 C 187.414 184.712, 188 184.363, 188 183.469 C 188 182.661, 187.887 182.014, 187.750 182.030 C 187.613 182.047, 186.713 182.519, 185.750 183.080 M 10.393 185.582 C 10.727 186.452, 11 187.529, 11 187.976 C 11 188.423, 12.029 188.724, 13.286 188.646 C 14.743 188.555, 15.571 187.869, 15.571 186.752 C 15.571 185.788, 15.266 185, 14.893 185 C 14.519 185, 13.917 185.775, 13.553 186.722 C 13.002 188.159, 12.747 188.208, 12.012 187.020 C 11.528 186.236, 11.354 185.237, 11.625 184.798 C 11.896 184.359, 11.593 184, 10.952 184 C 10.300 184, 10.053 184.697, 10.393 185.582 M 55.500 185 C 55.160 185.550, 55.136 186.412, 55.447 186.915 C 55.758 187.418, 55.672 188.019, 55.256 188.251 C 54.840 188.483, 55.063 188.535, 55.750 188.367 C 56.438 188.200, 57 188.724, 57 189.531 C 57 190.339, 57.372 191, 57.827 191 C 58.282 191, 58.566 192.238, 58.459 193.750 C 58.349 195.308, 58.465 195.633, 58.728 194.500 C 58.983 193.400, 59.711 191.851, 60.346 191.058 C 61.229 189.954, 61.217 189.786, 60.293 190.341 C 59.539 190.793, 58.520 189.973, 57.582 188.159 C 56.756 186.561, 56.362 184.972, 56.707 184.627 C 57.051 184.282, 57.060 184, 56.726 184 C 56.391 184, 55.840 184.450, 55.500 185 M 81 184.339 C 81 184.534, 81.900 185.732, 83 187 C 84.301 188.500, 85 188.812, 85 187.894 C 85 187.117, 84.100 185.919, 83 185.232 C 81.900 184.545, 81 184.143, 81 184.339 M 120.079 185.583 C 120.127 186.748, 120.364 186.985, 120.683 186.188 C 120.972 185.466, 120.936 184.603, 120.604 184.271 C 120.272 183.939, 120.036 184.529, 120.079 185.583 M 160.079 185.583 C 160.127 186.748, 160.364 186.985, 160.683 186.188 C 160.972 185.466, 160.936 184.603, 160.604 184.271 C 160.272 183.939, 160.036 184.529, 160.079 185.583 M 96.013 186.971 C 94.844 187.710, 95.004 187.875, 96.763 187.743 C 97.993 187.650, 99 187.220, 99 186.787 C 99 186.354, 98.662 186.007, 98.250 186.015 C 97.838 186.024, 96.831 186.454, 96.013 186.971 M 5.613 188.183 C 5.902 188.650, 6.557 188.774, 7.069 188.457 C 7.581 188.141, 8 187.759, 8 187.608 C 8 187.457, 7.345 187.333, 6.544 187.333 C 5.743 187.333, 5.324 187.716, 5.613 188.183 M 78.500 188 C 78.160 188.550, 78.359 189, 78.941 189 C 79.523 189, 80 188.550, 80 188 C 80 187.450, 79.802 187, 79.559 187 C 79.316 187, 78.840 187.450, 78.500 188 M 193.655 188.457 C 193.329 189.306, 192.422 190, 191.640 190 C 190.857 190, 189.885 191.238, 189.478 192.750 C 189.072 194.262, 188.646 196.738, 188.531 198.250 C 188.416 199.762, 188.699 201, 189.161 201 C 189.622 201, 190.053 200.213, 190.118 199.250 C 190.184 198.287, 190.184 197.162, 190.118 196.750 C 190.053 196.338, 190.563 195.993, 191.250 195.985 C 192.083 195.974, 192 195.646, 191 195 C 189.843 194.252, 189.810 194.027, 190.857 194.015 C 191.614 194.007, 191.974 193.374, 191.670 192.583 C 191.371 191.803, 191.718 190.938, 192.441 190.661 C 193.165 190.383, 194.187 190.587, 194.714 191.114 C 195.323 191.723, 195.617 191.339, 195.523 190.056 C 195.441 188.948, 195.121 187.787, 194.811 187.477 C 194.501 187.167, 193.981 187.608, 193.655 188.457 M 200.500 189 C 200.840 189.550, 201.316 190, 201.559 190 C 201.802 190, 202 189.550, 202 189 C 202 188.450, 201.523 188, 200.941 188 C 200.359 188, 200.160 188.450, 200.500 189 M 65.889 190.344 C 65.828 190.980, 65.861 192.512, 65.961 193.750 C 66.061 194.988, 65.634 196, 65.013 196 C 64.391 196, 64.141 195.581, 64.457 195.069 C 64.774 194.557, 64.545 193.837, 63.948 193.468 C 63.352 193.099, 63.103 192.175, 63.395 191.413 C 63.818 190.310, 63.559 190.259, 62.115 191.160 C 60.842 191.955, 60.334 193.434, 60.402 196.142 C 60.456 198.261, 60.950 199.834, 61.500 199.639 C 62.050 199.444, 62.443 198.581, 62.374 197.721 C 62.299 196.783, 62.796 196.368, 63.619 196.684 C 64.372 196.973, 64.769 197.565, 64.500 198 C 64.231 198.435, 64.572 199.005, 65.257 199.268 C 66.089 199.588, 66.570 198.550, 66.706 196.143 C 66.818 194.161, 67.615 192.023, 68.478 191.392 C 69.862 190.380, 69.809 190.183, 68.023 189.716 C 66.879 189.417, 65.952 189.689, 65.889 190.344 M 72.894 190.299 C 73.337 190.739, 76.804 190.959, 80.599 190.789 L 87.500 190.480 79.795 189.990 C 75.558 189.720, 72.452 189.860, 72.894 190.299 M 172.500 190 C 172.160 190.550, 172.359 191, 172.941 191 C 173.523 191, 174 190.550, 174 190 C 174 189.450, 173.802 189, 173.559 189 C 173.316 189, 172.840 189.450, 172.500 190 M 183.500 190 C 183.840 190.550, 184.316 191, 184.559 191 C 184.802 191, 185 190.550, 185 190 C 185 189.450, 184.523 189, 183.941 189 C 183.359 189, 183.160 189.450, 183.500 190 M 100.033 190.595 C 100.015 191.197, 100.855 192.464, 101.901 193.410 C 103.230 194.613, 104.012 194.790, 104.501 193.999 C 104.886 193.376, 104.930 192.597, 104.600 192.267 C 104.270 191.937, 104 192.242, 104 192.944 C 104 193.647, 103.115 193.159, 102.033 191.861 C 100.952 190.562, 100.052 189.993, 100.033 190.595 M 139.116 190.921 C 139.052 191.703, 138.255 193.165, 137.345 194.171 C 136.355 195.265, 136.154 196, 136.845 196 C 137.480 196, 138 196.434, 138 196.964 C 138 197.494, 136.391 199.021, 134.424 200.358 C 132.327 201.783, 131.293 203.063, 131.924 203.453 C 132.516 203.819, 133 203.656, 133 203.090 C 133 202.525, 133.608 202.296, 134.352 202.582 C 135.104 202.870, 136.468 201.934, 137.427 200.472 C 138.443 198.921, 139.734 198.067, 140.574 198.390 C 141.358 198.691, 142 198.532, 142 198.036 C 142 197.540, 141.100 196.849, 140 196.500 C 138.900 196.151, 138 195.483, 138 195.016 C 138 194.549, 138.501 194, 139.114 193.795 C 139.727 193.591, 140.004 192.541, 139.730 191.462 C 139.456 190.383, 139.180 190.140, 139.116 190.921 M 62 194 C 62 194.550, 62.477 195, 63.059 195 C 63.641 195, 63.840 194.550, 63.500 194 C 63.160 193.450, 62.684 193, 62.441 193 C 62.198 193, 62 193.450, 62 194 M 112.500 194 C 112.840 194.550, 113.316 195, 113.559 195 C 113.802 195, 114 194.550, 114 194 C 114 193.450, 113.523 193, 112.941 193 C 112.359 193, 112.160 193.450, 112.500 194 M 117.259 198.786 C 117.333 199.774, 118.181 200.571, 119.158 200.571 C 120.788 200.571, 120.799 200.436, 119.306 198.786 C 118.417 197.804, 117.563 197, 117.407 197 C 117.252 197, 117.185 197.804, 117.259 198.786 M 62 201.393 C 62 201.609, 62.675 202.045, 63.500 202.362 C 64.325 202.678, 65 202.501, 65 201.969 C 65 201.436, 64.325 201, 63.500 201 C 62.675 201, 62 201.177, 62 201.393 M 60.733 203.124 C 61.412 203.808, 62.219 204.115, 62.526 203.807 C 62.834 203.499, 62.279 202.940, 61.293 202.564 C 59.868 202.022, 59.753 202.136, 60.733 203.124 M 137.500 204 C 135.870 204.701, 135.812 204.872, 137.191 204.930 C 138.121 204.968, 139.160 204.550, 139.500 204 C 139.840 203.450, 139.979 203.032, 139.809 203.070 C 139.639 203.109, 138.600 203.527, 137.500 204 M 188.500 204 C 188.840 204.550, 189.316 205, 189.559 205 C 189.802 205, 190 204.550, 190 204 C 190 203.450, 189.523 203, 188.941 203 C 188.359 203, 188.160 203.450, 188.500 204 M 120.158 206 C 120.158 207.375, 120.385 207.938, 120.662 207.250 C 120.940 206.563, 120.940 205.438, 120.662 204.750 C 120.385 204.063, 120.158 204.625, 120.158 206 M 117.730 209.075 C 118.011 210.151, 118.590 211.247, 119.016 211.510 C 119.442 211.773, 120.018 211.396, 120.295 210.672 C 120.573 209.949, 119.995 208.853, 119.009 208.238 C 117.484 207.285, 117.294 207.409, 117.730 209.075 M 124 212.274 C 124 213.159, 124.410 214.136, 124.912 214.446 C 125.414 214.756, 125.727 214.345, 125.608 213.534 C 125.489 212.722, 125.078 211.745, 124.696 211.362 C 124.313 210.980, 124 211.390, 124 212.274 M 131.146 215.500 C 131.001 216.600, 130.935 222.439, 130.999 228.474 C 131.063 234.510, 131.315 239.648, 131.558 239.891 C 131.801 240.134, 132.113 240.146, 132.250 239.917 C 132.387 239.688, 132.254 233.650, 131.954 226.500 C 131.654 219.350, 131.290 214.400, 131.146 215.500 M 125.813 216.683 C 126.534 216.972, 127.397 216.936, 127.729 216.604 C 128.061 216.272, 127.471 216.036, 126.417 216.079 C 125.252 216.127, 125.015 216.364, 125.813 216.683 M 243.158 220 C 243.158 221.375, 243.385 221.938, 243.662 221.250 C 243.940 220.563, 243.940 219.438, 243.662 218.750 C 243.385 218.063, 243.158 218.625, 243.158 220 M 250.528 223.954 C 250.204 224.479, 250.250 226.150, 250.631 227.668 C 251.255 230.154, 251.400 230.233, 252.092 228.464 C 252.514 227.384, 252.891 225.713, 252.930 224.750 C 252.968 223.787, 252.577 223, 252.059 223 C 251.541 223, 250.853 223.429, 250.528 223.954 M 58.079 234.583 C 58.127 235.748, 58.364 235.985, 58.683 235.188 C 58.972 234.466, 58.936 233.603, 58.604 233.271 C 58.272 232.939, 58.036 233.529, 58.079 234.583 M 236.309 236.091 C 235.753 236.647, 234.420 237.168, 233.347 237.249 C 232.146 237.339, 231.342 238.185, 231.256 239.448 C 231.126 241.359, 231.206 241.380, 232.418 239.750 C 233.135 238.787, 234.057 238, 234.467 238 C 234.878 238, 234.949 238.690, 234.626 239.532 C 234.148 240.778, 234.496 240.732, 236.488 239.282 C 237.835 238.302, 238.951 237.189, 238.969 236.809 C 238.986 236.429, 238.622 235.884, 238.160 235.599 C 237.698 235.313, 236.865 235.535, 236.309 236.091 M 247 236.059 C 247 236.641, 247.450 236.840, 248 236.500 C 248.550 236.160, 249 235.684, 249 235.441 C 249 235.198, 248.550 235, 248 235 C 247.450 235, 247 235.477, 247 236.059 M 239.196 239.594 C 237.379 241.496, 235.397 242.745, 234.792 242.371 C 234.085 241.935, 233.979 242.156, 234.494 242.990 C 235.096 243.965, 234.658 244.168, 232.740 243.801 C 230.835 243.437, 230.320 243.670, 230.720 244.714 C 231.016 245.484, 231.898 245.869, 232.681 245.569 C 233.469 245.266, 233.831 245.464, 233.493 246.011 C 233.157 246.555, 233.250 247, 233.700 247 C 234.151 247, 235.066 246.124, 235.735 245.053 C 236.459 243.894, 237.748 243.259, 238.918 243.484 C 240.293 243.749, 240.720 243.435, 240.339 242.440 C 240.038 241.657, 240.419 240.776, 241.185 240.482 C 241.952 240.188, 242.645 239.060, 242.727 237.974 C 242.809 236.888, 242.791 236.031, 242.688 236.069 C 242.585 236.107, 241.013 237.693, 239.196 239.594 M 67.352 239.760 C 67.715 240.348, 67.447 241.057, 66.756 241.336 C 65.857 241.698, 65.839 241.865, 66.691 241.921 C 67.346 241.964, 68.141 241.581, 68.457 241.069 C 68.774 240.557, 68.506 239.813, 67.862 239.415 C 67.164 238.983, 66.958 239.123, 67.352 239.760 M 223.813 239.683 C 224.534 239.972, 225.397 239.936, 225.729 239.604 C 226.061 239.272, 225.471 239.036, 224.417 239.079 C 223.252 239.127, 223.015 239.364, 223.813 239.683 M 41 241.112 C 41 241.484, 42.125 241.724, 43.499 241.644 C 44.874 241.565, 45.999 241.168, 45.999 240.761 C 46 240.355, 44.875 240.116, 43.500 240.229 C 42.125 240.343, 41 240.740, 41 241.112 M 105 240.844 C 105 241.296, 105.891 241.600, 106.980 241.520 C 108.068 241.440, 109.172 241.161, 109.432 240.901 C 109.692 240.641, 108.801 240.337, 107.452 240.225 C 106.104 240.114, 105 240.392, 105 240.844 M 112.762 240.707 C 114.006 240.946, 115.806 240.937, 116.762 240.687 C 117.718 240.437, 116.700 240.241, 114.500 240.252 C 112.300 240.263, 111.518 240.468, 112.762 240.707" stroke="none" fill="#335370" fill-rule="evenodd" data-index="5"></path><path d="M 80.750 5.747 C 88.037 5.918, 99.962 5.918, 107.250 5.747 C 114.537 5.577, 108.575 5.437, 94 5.437 C 79.425 5.437, 73.462 5.577, 80.750 5.747 M 9.365 36.500 C 9.368 42, 9.536 44.122, 9.738 41.216 C 9.941 38.311, 9.939 33.811, 9.734 31.216 C 9.528 28.622, 9.363 31, 9.365 36.500 M 77.250 52.742 C 80.963 52.934, 87.037 52.934, 90.750 52.742 C 94.463 52.549, 91.425 52.392, 84 52.392 C 76.575 52.392, 73.537 52.549, 77.250 52.742 M 9.158 80 C 9.158 81.375, 9.385 81.938, 9.662 81.250 C 9.940 80.563, 9.940 79.438, 9.662 78.750 C 9.385 78.063, 9.158 78.625, 9.158 80 M 9.382 100.500 C 9.384 107.100, 9.546 109.670, 9.741 106.211 C 9.937 102.752, 9.936 97.352, 9.738 94.211 C 9.540 91.070, 9.380 93.900, 9.382 100.500 M 9.195 137.500 C 9.215 139.150, 9.439 139.704, 9.693 138.731 C 9.947 137.758, 9.930 136.408, 9.656 135.731 C 9.382 135.054, 9.175 135.850, 9.195 137.500 M 9.195 145.500 C 9.215 147.150, 9.439 147.704, 9.693 146.731 C 9.947 145.758, 9.930 144.408, 9.656 143.731 C 9.382 143.054, 9.175 143.850, 9.195 145.500 M 9.365 164.500 C 9.368 170, 9.536 172.122, 9.738 169.216 C 9.941 166.311, 9.939 161.811, 9.734 159.216 C 9.528 156.622, 9.363 159, 9.365 164.500 M 9.079 208.583 C 9.127 209.748, 9.364 209.985, 9.683 209.188 C 9.972 208.466, 9.936 207.603, 9.604 207.271 C 9.272 206.939, 9.036 207.529, 9.079 208.583 M 9.158 218 C 9.158 219.375, 9.385 219.938, 9.662 219.250 C 9.940 218.563, 9.940 217.438, 9.662 216.750 C 9.385 216.063, 9.158 216.625, 9.158 218 M 28.269 238.693 C 29.242 238.947, 30.592 238.930, 31.269 238.656 C 31.946 238.382, 31.150 238.175, 29.500 238.195 C 27.850 238.215, 27.296 238.439, 28.269 238.693" stroke="none" fill="#b9e5f0" fill-rule="evenodd" data-index="6"></path></svg>